M48
; DRILL file {KiCad (5.1.12-1-10_14)} date Tuesday, November 23, 2021 at 12:12:11 PM
; FORMAT={-:-/ absolute / inch / decimal}
; #@! TF.CreationDate,2021-11-23T12:12:11-05:00
; #@! TF.GenerationSoftware,Kicad,Pcbnew,(5.1.12-1-10_14)
; #@! TF.FileFunction,NonPlated,1,2,NPTH
FMAT,2
INCH
T1C0.0354
T2C0.1300
%
G90
G05
T1
X5.2155Y-5.1463
X5.2405Y-5.1463
X5.2655Y-5.1463
X5.2905Y-5.1463
X5.3155Y-5.1463
X5.3405Y-5.1463
X5.3405Y-5.1963
X5.3405Y-5.2463
X5.3405Y-5.2963
X5.3405Y-5.3463
X5.3655Y-5.1463
X5.4155Y-5.1463
X5.4655Y-5.1463
X5.5155Y-5.1463
X5.5655Y-5.1463
X5.6155Y-5.1463
X5.6655Y-5.1463
X5.7155Y-5.1463
X5.7655Y-5.1463
X5.8155Y-5.1463
X5.8655Y-5.1463
X5.9155Y-5.1463
X5.9655Y-5.1463
X6.0155Y-5.1463
X6.0655Y-5.1463
X6.1155Y-5.1463
X6.1655Y-5.1463
X6.2155Y-5.1463
X6.2655Y-5.1463
X6.3155Y-5.1463
X6.3155Y-5.1963
X6.3155Y-5.2463
X6.3155Y-5.2963
X6.3155Y-5.3463
X6.3405Y-5.1463
X6.3655Y-5.1463
X6.3905Y-5.1463
X6.4155Y-5.1463
X6.4405Y-5.1463
X6.4655Y-5.1463
T2
X5.5155Y-3.8063
T0
M30
