%TF.GenerationSoftware,KiCad,Pcbnew,(5.1.12-1-10_14)*%
%TF.CreationDate,2021-11-23T10:57:09-05:00*%
%TF.ProjectId,EMB2,454d4232-2e6b-4696-9361-645f70636258,rev?*%
%TF.SameCoordinates,Original*%
%TF.FileFunction,Copper,L2,Bot*%
%TF.FilePolarity,Positive*%
%FSLAX46Y46*%
G04 Gerber Fmt 4.6, Leading zero omitted, Abs format (unit mm)*
G04 Created by KiCad (PCBNEW (5.1.12-1-10_14)) date 2021-11-23 10:57:09*
%MOMM*%
%LPD*%
G01*
G04 APERTURE LIST*
%TA.AperFunction,ComponentPad*%
%ADD10R,3.216000X3.216000*%
%TD*%
%TA.AperFunction,ComponentPad*%
%ADD11R,1.800000X1.800000*%
%TD*%
%TA.AperFunction,ComponentPad*%
%ADD12O,1.320800X2.641600*%
%TD*%
%TA.AperFunction,ComponentPad*%
%ADD13O,1.524000X3.048000*%
%TD*%
%TA.AperFunction,ComponentPad*%
%ADD14C,1.320800*%
%TD*%
%TA.AperFunction,ComponentPad*%
%ADD15C,1.879600*%
%TD*%
%TA.AperFunction,ComponentPad*%
%ADD16C,2.159000*%
%TD*%
%TA.AperFunction,Conductor*%
%ADD17C,0.812800*%
%TD*%
%TA.AperFunction,Conductor*%
%ADD18C,0.406400*%
%TD*%
%TA.AperFunction,Conductor*%
%ADD19C,0.203200*%
%TD*%
%TA.AperFunction,Conductor*%
%ADD20C,0.100000*%
%TD*%
%TA.AperFunction,NonConductor*%
%ADD21C,0.203200*%
%TD*%
%TA.AperFunction,NonConductor*%
%ADD22C,0.100000*%
%TD*%
G04 APERTURE END LIST*
D10*
%TO.P,10K_LIN_POT,S2*%
%TO.N,N/C*%
X149063600Y-114206100D03*
%TO.P,10K_LIN_POT,S1*%
X159063600Y-114206100D03*
D11*
%TO.P,10K_LIN_POT,3*%
X151563600Y-107206100D03*
%TO.P,10K_LIN_POT,2*%
X154063600Y-107206100D03*
%TO.P,10K_LIN_POT,1*%
X156563600Y-107206100D03*
%TD*%
D12*
%TO.P,IC1,8*%
%TO.N,Net-(IC1-Pad8)*%
X151523600Y-95156100D03*
%TO.P,IC1,7*%
%TO.N,Net-(IC1-Pad7)*%
X154063600Y-95156100D03*
%TO.P,IC1,6*%
%TO.N,Net-(IC1-Pad6)*%
X156603600Y-95156100D03*
%TO.P,IC1,5*%
%TO.N,Net-(IC1-Pad5)*%
X159143600Y-95156100D03*
%TO.P,IC1,4*%
%TO.N,Net-(G1-Pad-)*%
X159143600Y-102776100D03*
%TO.P,IC1,3*%
%TO.N,N/C*%
X156603600Y-102776100D03*
%TO.P,IC1,2*%
X154063600Y-102776100D03*
%TO.P,IC1,1*%
X151523600Y-102776100D03*
%TD*%
D13*
%TO.P,7805,OUT*%
%TO.N,N/C*%
X142633600Y-111666100D03*
%TO.P,7805,GND*%
%TO.N,GND*%
X140093600Y-111666100D03*
%TO.P,7805,IN*%
%TO.N,N/C*%
X137553600Y-111666100D03*
%TD*%
D14*
%TO.P,L1,K*%
%TO.N,GND*%
X156603600Y-77376100D03*
%TO.P,L1,A*%
%TO.N,N/C*%
X159143600Y-77376100D03*
%TD*%
%TO.P,L2,K*%
%TO.N,GND*%
X136283600Y-77376100D03*
%TO.P,L2,A*%
%TO.N,N/C*%
X138823600Y-77376100D03*
%TD*%
%TO.P,L3,K*%
%TO.N,GND*%
X146443600Y-77376100D03*
%TO.P,L3,A*%
%TO.N,N/C*%
X148983600Y-77376100D03*
%TD*%
%TO.P,R1,2*%
%TO.N,Net-(LED1-PadA)*%
X159143600Y-83726100D03*
%TO.P,R1,1*%
%TO.N,Net-(IC1-Pad5)*%
X159143600Y-91346100D03*
%TD*%
%TO.P,R2,2*%
%TO.N,Net-(LED2-PadA)*%
X138823600Y-83726100D03*
%TO.P,R2,1*%
%TO.N,Net-(IC1-Pad6)*%
X138823600Y-91346100D03*
%TD*%
%TO.P,R3,2*%
%TO.N,Net-(LED3-PadA)*%
X148983600Y-83726100D03*
%TO.P,R3,1*%
%TO.N,Net-(IC1-Pad7)*%
X148983600Y-91346100D03*
%TD*%
D15*
%TO.P,S1,3*%
%TO.N,N/C*%
X137553600Y-116746100D03*
%TO.P,S1,2*%
%TO.N,Net-(L7805CV1-PadIN)*%
X140093600Y-116746100D03*
%TO.P,S1,1*%
%TO.N,N/C*%
X142633600Y-116746100D03*
%TD*%
D13*
%TO.P,E$2,6*%
%TO.N,N/C*%
X155333600Y-125636100D03*
%TO.P,E$2,5*%
X152793600Y-125636100D03*
%TO.P,E$2,4*%
X150253600Y-125636100D03*
%TO.P,E$2,3*%
X147713600Y-125636100D03*
%TO.P,E$2,2*%
X145173600Y-125636100D03*
%TO.P,E$2,1*%
%TO.N,GND*%
X142633600Y-125636100D03*
%TD*%
D14*
%TO.P,PRACTICE,2*%
%TO.N,N/C*%
X152793600Y-134526100D03*
%TO.P,PRACTICE,1*%
X145173600Y-134526100D03*
%TD*%
D16*
%TO.P,E$5,MP*%
%TO.N,N/C*%
X137553600Y-134526100D03*
%TD*%
%TO.P,E$6,MP*%
%TO.N,N/C*%
X140093600Y-134526100D03*
%TD*%
%TO.P,E$7,MP*%
%TO.N,N/C*%
X142633600Y-134526100D03*
%TD*%
%TO.P,E$8,MP*%
%TO.N,N/C*%
X158508600Y-134526100D03*
%TD*%
%TO.P,E$9,MP*%
%TO.N,N/C*%
X155968600Y-134526100D03*
%TD*%
D17*
%TO.N,*%
X154698600Y-128176100D02*
X155333600Y-126906100D01*
X141363600Y-128176100D02*
X154698600Y-128176100D01*
X137553600Y-125636100D02*
X141363600Y-128176100D01*
X137553600Y-125636100D02*
X137553600Y-116746100D01*
X155333600Y-126906100D02*
X155333600Y-125636100D01*
X154063600Y-107221100D02*
X154063600Y-102776100D01*
D18*
X145173600Y-125636100D02*
X145173600Y-124366100D01*
D17*
%TO.N,GND*%
X142633600Y-125636100D02*
X142633600Y-125001100D01*
%TO.N,Net-(IC1-Pad8)*%
X150253600Y-95156100D02*
X151523600Y-95156100D01*
X148983600Y-96426100D02*
X150253600Y-95156100D01*
X146443600Y-111666100D02*
X148983600Y-109126100D01*
X142633600Y-111666100D02*
X146443600Y-111666100D01*
X148983600Y-109126100D02*
X148983600Y-107221100D01*
X148983600Y-107221100D02*
X148983600Y-96426100D01*
X148983600Y-107221100D02*
X151523600Y-107221100D01*
%TO.N,Net-(IC1-Pad7)*%
X154063600Y-95156100D02*
X154063600Y-93886100D01*
X154063600Y-93886100D02*
X151523600Y-91346100D01*
X151523600Y-91346100D02*
X148983600Y-91346100D01*
D18*
%TO.N,Net-(IC1-Pad6)*%
X156603600Y-95156100D02*
X156603600Y-96426100D01*
D17*
X156603600Y-95156100D02*
X156603600Y-92616100D01*
X156603600Y-92616100D02*
X151523600Y-87536100D01*
X151523600Y-87536100D02*
X140093600Y-87536100D01*
X140093600Y-87536100D02*
X138823600Y-88806100D01*
X138823600Y-88806100D02*
X138823600Y-91346100D01*
%TO.N,Net-(IC1-Pad5)*%
X159143600Y-95156100D02*
X159143600Y-91346100D01*
%TO.N,Net-(LED1-PadA)*%
X159143600Y-83726100D02*
X159143600Y-77376100D01*
%TO.N,Net-(LED2-PadA)*%
X138823600Y-83726100D02*
X138823600Y-77376100D01*
%TO.N,Net-(LED3-PadA)*%
X148983600Y-83726100D02*
X148983600Y-77376100D01*
%TO.N,Net-(L7805CV1-PadIN)*%
X137553600Y-114206100D02*
X137553600Y-111666100D01*
X140093600Y-116746100D02*
X137553600Y-114206100D01*
%TD*%
D19*
%TO.N,Net-(G1-Pad-)*%
X164325200Y-129547700D02*
X132600201Y-129547700D01*
X132600201Y-116623833D01*
X136312200Y-116623833D01*
X136312200Y-116868367D01*
X136359906Y-117108203D01*
X136453485Y-117334124D01*
X136589341Y-117537447D01*
X136762253Y-117710359D01*
X136845601Y-117766050D01*
X136845600Y-125601701D01*
X136842176Y-125636844D01*
X136848957Y-125704960D01*
X136855845Y-125774891D01*
X136855956Y-125775256D01*
X136855992Y-125775621D01*
X136876012Y-125841374D01*
X136896329Y-125908350D01*
X136896505Y-125908680D01*
X136896614Y-125909037D01*
X136929260Y-125969959D01*
X136962072Y-126031346D01*
X136962311Y-126031637D01*
X136962486Y-126031964D01*
X137006470Y-126085445D01*
X137050547Y-126139152D01*
X137050835Y-126139388D01*
X137051074Y-126139679D01*
X137104652Y-126183556D01*
X137158353Y-126227628D01*
X137189504Y-126244278D01*
X140941629Y-128745696D01*
X140968353Y-128767628D01*
X140999499Y-128784276D01*
X140999805Y-128784480D01*
X141029993Y-128800575D01*
X141091349Y-128833371D01*
X141091707Y-128833480D01*
X141092036Y-128833655D01*
X141158419Y-128853716D01*
X141224808Y-128873855D01*
X141225179Y-128873892D01*
X141225538Y-128874000D01*
X141294395Y-128880709D01*
X141328826Y-128884100D01*
X141329201Y-128884100D01*
X141364344Y-128887524D01*
X141398737Y-128884100D01*
X154638594Y-128884100D01*
X154648169Y-128885735D01*
X154708200Y-128884100D01*
X154733374Y-128884100D01*
X154742996Y-128883152D01*
X154787580Y-128881938D01*
X154812228Y-128876333D01*
X154837392Y-128873855D01*
X154880088Y-128860903D01*
X154923572Y-128851016D01*
X154946650Y-128840712D01*
X154970851Y-128833371D01*
X155010198Y-128812340D01*
X155050918Y-128794159D01*
X155071546Y-128779548D01*
X155093847Y-128767628D01*
X155128330Y-128739328D01*
X155164726Y-128713549D01*
X155182109Y-128695192D01*
X155201653Y-128679153D01*
X155229955Y-128644667D01*
X155260621Y-128612284D01*
X155274086Y-128590894D01*
X155290128Y-128571347D01*
X155311157Y-128532005D01*
X155316303Y-128523830D01*
X155327553Y-128501331D01*
X155355871Y-128448351D01*
X155358692Y-128439053D01*
X155940064Y-127276306D01*
X156089318Y-127153818D01*
X156222230Y-126991863D01*
X156320993Y-126807091D01*
X156381810Y-126606602D01*
X156397200Y-126450347D01*
X156397200Y-124821853D01*
X156381810Y-124665598D01*
X156320993Y-124465109D01*
X156222230Y-124280337D01*
X156089318Y-124118382D01*
X155927363Y-123985470D01*
X155742590Y-123886707D01*
X155542101Y-123825890D01*
X155333600Y-123805354D01*
X155125098Y-123825890D01*
X154924609Y-123886707D01*
X154739837Y-123985470D01*
X154577882Y-124118382D01*
X154444970Y-124280337D01*
X154346207Y-124465110D01*
X154285390Y-124665599D01*
X154270000Y-124821854D01*
X154270000Y-126450347D01*
X154285391Y-126606602D01*
X154346208Y-126807091D01*
X154444971Y-126991863D01*
X154478638Y-127032887D01*
X154261033Y-127468100D01*
X141577965Y-127468100D01*
X138261600Y-125257191D01*
X138261600Y-124821854D01*
X141570000Y-124821854D01*
X141570000Y-126450347D01*
X141585391Y-126606602D01*
X141646208Y-126807091D01*
X141744971Y-126991863D01*
X141877883Y-127153818D01*
X142039838Y-127286730D01*
X142224610Y-127385493D01*
X142425099Y-127446310D01*
X142633600Y-127466846D01*
X142842102Y-127446310D01*
X143042591Y-127385493D01*
X143227363Y-127286730D01*
X143389318Y-127153818D01*
X143522230Y-126991863D01*
X143620993Y-126807091D01*
X143681810Y-126606602D01*
X143697200Y-126450347D01*
X143697200Y-124821854D01*
X144110000Y-124821854D01*
X144110000Y-126450347D01*
X144125391Y-126606602D01*
X144186208Y-126807091D01*
X144284971Y-126991863D01*
X144417883Y-127153818D01*
X144579838Y-127286730D01*
X144764610Y-127385493D01*
X144965099Y-127446310D01*
X145173600Y-127466846D01*
X145382102Y-127446310D01*
X145582591Y-127385493D01*
X145767363Y-127286730D01*
X145929318Y-127153818D01*
X146062230Y-126991863D01*
X146160993Y-126807091D01*
X146221810Y-126606602D01*
X146237200Y-126450347D01*
X146237200Y-124821854D01*
X146650000Y-124821854D01*
X146650000Y-126450347D01*
X146665391Y-126606602D01*
X146726208Y-126807091D01*
X146824971Y-126991863D01*
X146957883Y-127153818D01*
X147119838Y-127286730D01*
X147304610Y-127385493D01*
X147505099Y-127446310D01*
X147713600Y-127466846D01*
X147922102Y-127446310D01*
X148122591Y-127385493D01*
X148307363Y-127286730D01*
X148469318Y-127153818D01*
X148602230Y-126991863D01*
X148700993Y-126807091D01*
X148761810Y-126606602D01*
X148777200Y-126450347D01*
X148777200Y-124821854D01*
X149190000Y-124821854D01*
X149190000Y-126450347D01*
X149205391Y-126606602D01*
X149266208Y-126807091D01*
X149364971Y-126991863D01*
X149497883Y-127153818D01*
X149659838Y-127286730D01*
X149844610Y-127385493D01*
X150045099Y-127446310D01*
X150253600Y-127466846D01*
X150462102Y-127446310D01*
X150662591Y-127385493D01*
X150847363Y-127286730D01*
X151009318Y-127153818D01*
X151142230Y-126991863D01*
X151240993Y-126807091D01*
X151301810Y-126606602D01*
X151317200Y-126450347D01*
X151317200Y-124821854D01*
X151730000Y-124821854D01*
X151730000Y-126450347D01*
X151745391Y-126606602D01*
X151806208Y-126807091D01*
X151904971Y-126991863D01*
X152037883Y-127153818D01*
X152199838Y-127286730D01*
X152384610Y-127385493D01*
X152585099Y-127446310D01*
X152793600Y-127466846D01*
X153002102Y-127446310D01*
X153202591Y-127385493D01*
X153387363Y-127286730D01*
X153549318Y-127153818D01*
X153682230Y-126991863D01*
X153780993Y-126807091D01*
X153841810Y-126606602D01*
X153857200Y-126450347D01*
X153857200Y-124821853D01*
X153841810Y-124665598D01*
X153780993Y-124465109D01*
X153682230Y-124280337D01*
X153549318Y-124118382D01*
X153387363Y-123985470D01*
X153202590Y-123886707D01*
X153002101Y-123825890D01*
X152793600Y-123805354D01*
X152585098Y-123825890D01*
X152384609Y-123886707D01*
X152199837Y-123985470D01*
X152037882Y-124118382D01*
X151904970Y-124280337D01*
X151806207Y-124465110D01*
X151745390Y-124665599D01*
X151730000Y-124821854D01*
X151317200Y-124821854D01*
X151317200Y-124821853D01*
X151301810Y-124665598D01*
X151240993Y-124465109D01*
X151142230Y-124280337D01*
X151009318Y-124118382D01*
X150847363Y-123985470D01*
X150662590Y-123886707D01*
X150462101Y-123825890D01*
X150253600Y-123805354D01*
X150045098Y-123825890D01*
X149844609Y-123886707D01*
X149659837Y-123985470D01*
X149497882Y-124118382D01*
X149364970Y-124280337D01*
X149266207Y-124465110D01*
X149205390Y-124665599D01*
X149190000Y-124821854D01*
X148777200Y-124821854D01*
X148777200Y-124821853D01*
X148761810Y-124665598D01*
X148700993Y-124465109D01*
X148602230Y-124280337D01*
X148469318Y-124118382D01*
X148307363Y-123985470D01*
X148122590Y-123886707D01*
X147922101Y-123825890D01*
X147713600Y-123805354D01*
X147505098Y-123825890D01*
X147304609Y-123886707D01*
X147119837Y-123985470D01*
X146957882Y-124118382D01*
X146824970Y-124280337D01*
X146726207Y-124465110D01*
X146665390Y-124665599D01*
X146650000Y-124821854D01*
X146237200Y-124821854D01*
X146237200Y-124821853D01*
X146221810Y-124665598D01*
X146160993Y-124465109D01*
X146062230Y-124280337D01*
X145929318Y-124118382D01*
X145767363Y-123985470D01*
X145582590Y-123886707D01*
X145382101Y-123825890D01*
X145173600Y-123805354D01*
X144965098Y-123825890D01*
X144764609Y-123886707D01*
X144579837Y-123985470D01*
X144417882Y-124118382D01*
X144284970Y-124280337D01*
X144186207Y-124465110D01*
X144125390Y-124665599D01*
X144110000Y-124821854D01*
X143697200Y-124821854D01*
X143697200Y-124821853D01*
X143681810Y-124665598D01*
X143620993Y-124465109D01*
X143522230Y-124280337D01*
X143389318Y-124118382D01*
X143227363Y-123985470D01*
X143042590Y-123886707D01*
X142842101Y-123825890D01*
X142633600Y-123805354D01*
X142425098Y-123825890D01*
X142224609Y-123886707D01*
X142039837Y-123985470D01*
X141877882Y-124118382D01*
X141744970Y-124280337D01*
X141646207Y-124465110D01*
X141585390Y-124665599D01*
X141570000Y-124821854D01*
X138261600Y-124821854D01*
X138261600Y-117766050D01*
X138344947Y-117710359D01*
X138517859Y-117537447D01*
X138653715Y-117334124D01*
X138747294Y-117108203D01*
X138795000Y-116868367D01*
X138795000Y-116623833D01*
X138751530Y-116405293D01*
X138871756Y-116525519D01*
X138852200Y-116623833D01*
X138852200Y-116868367D01*
X138899906Y-117108203D01*
X138993485Y-117334124D01*
X139129341Y-117537447D01*
X139302253Y-117710359D01*
X139505576Y-117846215D01*
X139731497Y-117939794D01*
X139971333Y-117987500D01*
X140215867Y-117987500D01*
X140455703Y-117939794D01*
X140681624Y-117846215D01*
X140884947Y-117710359D01*
X141057859Y-117537447D01*
X141193715Y-117334124D01*
X141287294Y-117108203D01*
X141335000Y-116868367D01*
X141335000Y-116623833D01*
X141392200Y-116623833D01*
X141392200Y-116868367D01*
X141439906Y-117108203D01*
X141533485Y-117334124D01*
X141669341Y-117537447D01*
X141842253Y-117710359D01*
X142045576Y-117846215D01*
X142271497Y-117939794D01*
X142511333Y-117987500D01*
X142755867Y-117987500D01*
X142995703Y-117939794D01*
X143221624Y-117846215D01*
X143424947Y-117710359D01*
X143597859Y-117537447D01*
X143733715Y-117334124D01*
X143827294Y-117108203D01*
X143875000Y-116868367D01*
X143875000Y-116623833D01*
X143827294Y-116383997D01*
X143733715Y-116158076D01*
X143597859Y-115954753D01*
X143424947Y-115781841D01*
X143221624Y-115645985D01*
X142995703Y-115552406D01*
X142755867Y-115504700D01*
X142511333Y-115504700D01*
X142271497Y-115552406D01*
X142045576Y-115645985D01*
X141842253Y-115781841D01*
X141669341Y-115954753D01*
X141533485Y-116158076D01*
X141439906Y-116383997D01*
X141392200Y-116623833D01*
X141335000Y-116623833D01*
X141287294Y-116383997D01*
X141193715Y-116158076D01*
X141057859Y-115954753D01*
X140884947Y-115781841D01*
X140681624Y-115645985D01*
X140455703Y-115552406D01*
X140215867Y-115504700D01*
X139971333Y-115504700D01*
X139873019Y-115524256D01*
X138261600Y-113912838D01*
X138261600Y-113222979D01*
X138309318Y-113183818D01*
X138442230Y-113021863D01*
X138540993Y-112837091D01*
X138601810Y-112636602D01*
X138617200Y-112480347D01*
X138617200Y-110851854D01*
X139030000Y-110851854D01*
X139030000Y-112480347D01*
X139045391Y-112636602D01*
X139106208Y-112837091D01*
X139204971Y-113021863D01*
X139337883Y-113183818D01*
X139499838Y-113316730D01*
X139684610Y-113415493D01*
X139885099Y-113476310D01*
X140093600Y-113496846D01*
X140302102Y-113476310D01*
X140502591Y-113415493D01*
X140687363Y-113316730D01*
X140849318Y-113183818D01*
X140982230Y-113021863D01*
X141080993Y-112837091D01*
X141141810Y-112636602D01*
X141157200Y-112480347D01*
X141157200Y-110851854D01*
X141570000Y-110851854D01*
X141570000Y-112480347D01*
X141585391Y-112636602D01*
X141646208Y-112837091D01*
X141744971Y-113021863D01*
X141877883Y-113183818D01*
X142039838Y-113316730D01*
X142224610Y-113415493D01*
X142425099Y-113476310D01*
X142633600Y-113496846D01*
X142842102Y-113476310D01*
X143042591Y-113415493D01*
X143227363Y-113316730D01*
X143389318Y-113183818D01*
X143522230Y-113021863D01*
X143620993Y-112837091D01*
X143681810Y-112636602D01*
X143685602Y-112598100D01*
X147152541Y-112598100D01*
X147152541Y-115814100D01*
X147158364Y-115873224D01*
X147175610Y-115930076D01*
X147203616Y-115982471D01*
X147241305Y-116028395D01*
X147287229Y-116066084D01*
X147339624Y-116094090D01*
X147396476Y-116111336D01*
X147455600Y-116117159D01*
X150671600Y-116117159D01*
X150730724Y-116111336D01*
X150787576Y-116094090D01*
X150839971Y-116066084D01*
X150885895Y-116028395D01*
X150923584Y-115982471D01*
X150951590Y-115930076D01*
X150968836Y-115873224D01*
X150974659Y-115814100D01*
X150974659Y-112598100D01*
X157152541Y-112598100D01*
X157152541Y-115814100D01*
X157158364Y-115873224D01*
X157175610Y-115930076D01*
X157203616Y-115982471D01*
X157241305Y-116028395D01*
X157287229Y-116066084D01*
X157339624Y-116094090D01*
X157396476Y-116111336D01*
X157455600Y-116117159D01*
X160671600Y-116117159D01*
X160730724Y-116111336D01*
X160787576Y-116094090D01*
X160839971Y-116066084D01*
X160885895Y-116028395D01*
X160923584Y-115982471D01*
X160951590Y-115930076D01*
X160968836Y-115873224D01*
X160974659Y-115814100D01*
X160974659Y-112598100D01*
X160968836Y-112538976D01*
X160951590Y-112482124D01*
X160923584Y-112429729D01*
X160885895Y-112383805D01*
X160839971Y-112346116D01*
X160787576Y-112318110D01*
X160730724Y-112300864D01*
X160671600Y-112295041D01*
X157455600Y-112295041D01*
X157396476Y-112300864D01*
X157339624Y-112318110D01*
X157287229Y-112346116D01*
X157241305Y-112383805D01*
X157203616Y-112429729D01*
X157175610Y-112482124D01*
X157158364Y-112538976D01*
X157152541Y-112598100D01*
X150974659Y-112598100D01*
X150968836Y-112538976D01*
X150951590Y-112482124D01*
X150923584Y-112429729D01*
X150885895Y-112383805D01*
X150839971Y-112346116D01*
X150787576Y-112318110D01*
X150730724Y-112300864D01*
X150671600Y-112295041D01*
X147455600Y-112295041D01*
X147396476Y-112300864D01*
X147339624Y-112318110D01*
X147287229Y-112346116D01*
X147241305Y-112383805D01*
X147203616Y-112429729D01*
X147175610Y-112482124D01*
X147158364Y-112538976D01*
X147152541Y-112598100D01*
X143685602Y-112598100D01*
X143697200Y-112480347D01*
X143697200Y-112374100D01*
X146408834Y-112374100D01*
X146443600Y-112377524D01*
X146478366Y-112374100D01*
X146478374Y-112374100D01*
X146582392Y-112363855D01*
X146715851Y-112323371D01*
X146838847Y-112257628D01*
X146946653Y-112169153D01*
X146968823Y-112142139D01*
X149459649Y-109651314D01*
X149486652Y-109629153D01*
X149508814Y-109602149D01*
X149508820Y-109602143D01*
X149541794Y-109561963D01*
X149575128Y-109521347D01*
X149640871Y-109398351D01*
X149681355Y-109264892D01*
X149691600Y-109160874D01*
X149691600Y-109160865D01*
X149695024Y-109126101D01*
X149691600Y-109091337D01*
X149691600Y-107929100D01*
X150360541Y-107929100D01*
X150360541Y-108106100D01*
X150366364Y-108165224D01*
X150383610Y-108222076D01*
X150411616Y-108274471D01*
X150449305Y-108320395D01*
X150495229Y-108358084D01*
X150547624Y-108386090D01*
X150604476Y-108403336D01*
X150663600Y-108409159D01*
X152463600Y-108409159D01*
X152522724Y-108403336D01*
X152579576Y-108386090D01*
X152631971Y-108358084D01*
X152677895Y-108320395D01*
X152715584Y-108274471D01*
X152743590Y-108222076D01*
X152760836Y-108165224D01*
X152766659Y-108106100D01*
X152766659Y-106306100D01*
X152860541Y-106306100D01*
X152860541Y-108106100D01*
X152866364Y-108165224D01*
X152883610Y-108222076D01*
X152911616Y-108274471D01*
X152949305Y-108320395D01*
X152995229Y-108358084D01*
X153047624Y-108386090D01*
X153104476Y-108403336D01*
X153163600Y-108409159D01*
X154963600Y-108409159D01*
X155022724Y-108403336D01*
X155079576Y-108386090D01*
X155131971Y-108358084D01*
X155177895Y-108320395D01*
X155215584Y-108274471D01*
X155243590Y-108222076D01*
X155260836Y-108165224D01*
X155266659Y-108106100D01*
X155266659Y-106306100D01*
X155360541Y-106306100D01*
X155360541Y-108106100D01*
X155366364Y-108165224D01*
X155383610Y-108222076D01*
X155411616Y-108274471D01*
X155449305Y-108320395D01*
X155495229Y-108358084D01*
X155547624Y-108386090D01*
X155604476Y-108403336D01*
X155663600Y-108409159D01*
X157463600Y-108409159D01*
X157522724Y-108403336D01*
X157579576Y-108386090D01*
X157631971Y-108358084D01*
X157677895Y-108320395D01*
X157715584Y-108274471D01*
X157743590Y-108222076D01*
X157760836Y-108165224D01*
X157766659Y-108106100D01*
X157766659Y-106306100D01*
X157760836Y-106246976D01*
X157743590Y-106190124D01*
X157715584Y-106137729D01*
X157677895Y-106091805D01*
X157631971Y-106054116D01*
X157579576Y-106026110D01*
X157522724Y-106008864D01*
X157463600Y-106003041D01*
X155663600Y-106003041D01*
X155604476Y-106008864D01*
X155547624Y-106026110D01*
X155495229Y-106054116D01*
X155449305Y-106091805D01*
X155411616Y-106137729D01*
X155383610Y-106190124D01*
X155366364Y-106246976D01*
X155360541Y-106306100D01*
X155266659Y-106306100D01*
X155260836Y-106246976D01*
X155243590Y-106190124D01*
X155215584Y-106137729D01*
X155177895Y-106091805D01*
X155131971Y-106054116D01*
X155079576Y-106026110D01*
X155022724Y-106008864D01*
X154963600Y-106003041D01*
X154771600Y-106003041D01*
X154771600Y-104090208D01*
X154867343Y-103973544D01*
X154956672Y-103806422D01*
X155011680Y-103625085D01*
X155025600Y-103483753D01*
X155025600Y-102068448D01*
X155641600Y-102068448D01*
X155641601Y-103483753D01*
X155655521Y-103625085D01*
X155710529Y-103806422D01*
X155799858Y-103973544D01*
X155920073Y-104120028D01*
X156066557Y-104240243D01*
X156233679Y-104329572D01*
X156415016Y-104384580D01*
X156603600Y-104403154D01*
X156792185Y-104384580D01*
X156973522Y-104329572D01*
X157140644Y-104240243D01*
X157287128Y-104120028D01*
X157407343Y-103973544D01*
X157496672Y-103806422D01*
X157551680Y-103625085D01*
X157565600Y-103483753D01*
X157565600Y-102902700D01*
X157925200Y-102902700D01*
X157925200Y-103563100D01*
X157973310Y-103798365D01*
X158066393Y-104019724D01*
X158200873Y-104218670D01*
X158371581Y-104387558D01*
X158571957Y-104519897D01*
X158794301Y-104610602D01*
X158828991Y-104613581D01*
X159017000Y-104507947D01*
X159017000Y-102902700D01*
X159270200Y-102902700D01*
X159270200Y-104507947D01*
X159458209Y-104613581D01*
X159492899Y-104610602D01*
X159715243Y-104519897D01*
X159915619Y-104387558D01*
X160086327Y-104218670D01*
X160220807Y-104019724D01*
X160313890Y-103798365D01*
X160362000Y-103563100D01*
X160362000Y-102902700D01*
X159270200Y-102902700D01*
X159017000Y-102902700D01*
X157925200Y-102902700D01*
X157565600Y-102902700D01*
X157565600Y-102068447D01*
X157557785Y-101989100D01*
X157925200Y-101989100D01*
X157925200Y-102649500D01*
X159017000Y-102649500D01*
X159017000Y-101044253D01*
X159270200Y-101044253D01*
X159270200Y-102649500D01*
X160362000Y-102649500D01*
X160362000Y-101989100D01*
X160313890Y-101753835D01*
X160220807Y-101532476D01*
X160086327Y-101333530D01*
X159915619Y-101164642D01*
X159715243Y-101032303D01*
X159492899Y-100941598D01*
X159458209Y-100938619D01*
X159270200Y-101044253D01*
X159017000Y-101044253D01*
X158828991Y-100938619D01*
X158794301Y-100941598D01*
X158571957Y-101032303D01*
X158371581Y-101164642D01*
X158200873Y-101333530D01*
X158066393Y-101532476D01*
X157973310Y-101753835D01*
X157925200Y-101989100D01*
X157557785Y-101989100D01*
X157551680Y-101927115D01*
X157496672Y-101745778D01*
X157407343Y-101578656D01*
X157287128Y-101432172D01*
X157140644Y-101311957D01*
X156973521Y-101222628D01*
X156792184Y-101167620D01*
X156603600Y-101149046D01*
X156415015Y-101167620D01*
X156233678Y-101222628D01*
X156066556Y-101311957D01*
X155920072Y-101432172D01*
X155799857Y-101578656D01*
X155710528Y-101745779D01*
X155655520Y-101927116D01*
X155641600Y-102068448D01*
X155025600Y-102068448D01*
X155025600Y-102068447D01*
X155011680Y-101927115D01*
X154956672Y-101745778D01*
X154867343Y-101578656D01*
X154747128Y-101432172D01*
X154600644Y-101311957D01*
X154433521Y-101222628D01*
X154252184Y-101167620D01*
X154063600Y-101149046D01*
X153875015Y-101167620D01*
X153693678Y-101222628D01*
X153526556Y-101311957D01*
X153380072Y-101432172D01*
X153259857Y-101578656D01*
X153170528Y-101745779D01*
X153115520Y-101927116D01*
X153101600Y-102068448D01*
X153101601Y-103483753D01*
X153115521Y-103625085D01*
X153170529Y-103806422D01*
X153259858Y-103973544D01*
X153355601Y-104090208D01*
X153355600Y-106003041D01*
X153163600Y-106003041D01*
X153104476Y-106008864D01*
X153047624Y-106026110D01*
X152995229Y-106054116D01*
X152949305Y-106091805D01*
X152911616Y-106137729D01*
X152883610Y-106190124D01*
X152866364Y-106246976D01*
X152860541Y-106306100D01*
X152766659Y-106306100D01*
X152760836Y-106246976D01*
X152743590Y-106190124D01*
X152715584Y-106137729D01*
X152677895Y-106091805D01*
X152631971Y-106054116D01*
X152579576Y-106026110D01*
X152522724Y-106008864D01*
X152463600Y-106003041D01*
X150663600Y-106003041D01*
X150604476Y-106008864D01*
X150547624Y-106026110D01*
X150495229Y-106054116D01*
X150449305Y-106091805D01*
X150411616Y-106137729D01*
X150383610Y-106190124D01*
X150366364Y-106246976D01*
X150360541Y-106306100D01*
X150360541Y-106513100D01*
X149691600Y-106513100D01*
X149691600Y-102068448D01*
X150561600Y-102068448D01*
X150561601Y-103483753D01*
X150575521Y-103625085D01*
X150630529Y-103806422D01*
X150719858Y-103973544D01*
X150840073Y-104120028D01*
X150986557Y-104240243D01*
X151153679Y-104329572D01*
X151335016Y-104384580D01*
X151523600Y-104403154D01*
X151712185Y-104384580D01*
X151893522Y-104329572D01*
X152060644Y-104240243D01*
X152207128Y-104120028D01*
X152327343Y-103973544D01*
X152416672Y-103806422D01*
X152471680Y-103625085D01*
X152485600Y-103483753D01*
X152485600Y-102068447D01*
X152471680Y-101927115D01*
X152416672Y-101745778D01*
X152327343Y-101578656D01*
X152207128Y-101432172D01*
X152060644Y-101311957D01*
X151893521Y-101222628D01*
X151712184Y-101167620D01*
X151523600Y-101149046D01*
X151335015Y-101167620D01*
X151153678Y-101222628D01*
X150986556Y-101311957D01*
X150840072Y-101432172D01*
X150719857Y-101578656D01*
X150630528Y-101745779D01*
X150575520Y-101927116D01*
X150561600Y-102068448D01*
X149691600Y-102068448D01*
X149691600Y-96719362D01*
X150546863Y-95864100D01*
X150561635Y-95864100D01*
X150575521Y-96005085D01*
X150630529Y-96186422D01*
X150719858Y-96353544D01*
X150840073Y-96500028D01*
X150986557Y-96620243D01*
X151153679Y-96709572D01*
X151335016Y-96764580D01*
X151523600Y-96783154D01*
X151712185Y-96764580D01*
X151893522Y-96709572D01*
X152060644Y-96620243D01*
X152207128Y-96500028D01*
X152327343Y-96353544D01*
X152416672Y-96186422D01*
X152471680Y-96005085D01*
X152485600Y-95863753D01*
X152485600Y-94448447D01*
X152471680Y-94307115D01*
X152416672Y-94125778D01*
X152327343Y-93958656D01*
X152207128Y-93812172D01*
X152060644Y-93691957D01*
X151893521Y-93602628D01*
X151712184Y-93547620D01*
X151523600Y-93529046D01*
X151335015Y-93547620D01*
X151153678Y-93602628D01*
X150986556Y-93691957D01*
X150840072Y-93812172D01*
X150719857Y-93958656D01*
X150630528Y-94125779D01*
X150575520Y-94307116D01*
X150561634Y-94448100D01*
X150288366Y-94448100D01*
X150253599Y-94444676D01*
X150218833Y-94448100D01*
X150218826Y-94448100D01*
X150114808Y-94458345D01*
X149981349Y-94498829D01*
X149858353Y-94564572D01*
X149750547Y-94653047D01*
X149728381Y-94680056D01*
X148507556Y-95900882D01*
X148480548Y-95923047D01*
X148458382Y-95950056D01*
X148458380Y-95950058D01*
X148392072Y-96030854D01*
X148326329Y-96153850D01*
X148285845Y-96287309D01*
X148272176Y-96426100D01*
X148275601Y-96460876D01*
X148275600Y-107186326D01*
X148272175Y-107221100D01*
X148275601Y-107255884D01*
X148275600Y-108832837D01*
X146150338Y-110958100D01*
X143697200Y-110958100D01*
X143697200Y-110851853D01*
X143681810Y-110695598D01*
X143620993Y-110495109D01*
X143522230Y-110310337D01*
X143389318Y-110148382D01*
X143227363Y-110015470D01*
X143042590Y-109916707D01*
X142842101Y-109855890D01*
X142633600Y-109835354D01*
X142425098Y-109855890D01*
X142224609Y-109916707D01*
X142039837Y-110015470D01*
X141877882Y-110148382D01*
X141744970Y-110310337D01*
X141646207Y-110495110D01*
X141585390Y-110695599D01*
X141570000Y-110851854D01*
X141157200Y-110851854D01*
X141157200Y-110851853D01*
X141141810Y-110695598D01*
X141080993Y-110495109D01*
X140982230Y-110310337D01*
X140849318Y-110148382D01*
X140687363Y-110015470D01*
X140502590Y-109916707D01*
X140302101Y-109855890D01*
X140093600Y-109835354D01*
X139885098Y-109855890D01*
X139684609Y-109916707D01*
X139499837Y-110015470D01*
X139337882Y-110148382D01*
X139204970Y-110310337D01*
X139106207Y-110495110D01*
X139045390Y-110695599D01*
X139030000Y-110851854D01*
X138617200Y-110851854D01*
X138617200Y-110851853D01*
X138601810Y-110695598D01*
X138540993Y-110495109D01*
X138442230Y-110310337D01*
X138309318Y-110148382D01*
X138147363Y-110015470D01*
X137962590Y-109916707D01*
X137762101Y-109855890D01*
X137553600Y-109835354D01*
X137345098Y-109855890D01*
X137144609Y-109916707D01*
X136959837Y-110015470D01*
X136797882Y-110148382D01*
X136664970Y-110310337D01*
X136566207Y-110495110D01*
X136505390Y-110695599D01*
X136490000Y-110851854D01*
X136490000Y-112480347D01*
X136505391Y-112636602D01*
X136566208Y-112837091D01*
X136664971Y-113021863D01*
X136797883Y-113183818D01*
X136845600Y-113222978D01*
X136845600Y-114171333D01*
X136842176Y-114206100D01*
X136845600Y-114240866D01*
X136845600Y-114240873D01*
X136855845Y-114344891D01*
X136896329Y-114478350D01*
X136962072Y-114601346D01*
X137050547Y-114709152D01*
X137077557Y-114731319D01*
X137894408Y-115548170D01*
X137675867Y-115504700D01*
X137431333Y-115504700D01*
X137191497Y-115552406D01*
X136965576Y-115645985D01*
X136762253Y-115781841D01*
X136589341Y-115954753D01*
X136453485Y-116158076D01*
X136359906Y-116383997D01*
X136312200Y-116623833D01*
X132600201Y-116623833D01*
X132600201Y-96487786D01*
X138141000Y-96487786D01*
X138141000Y-96872414D01*
X138216037Y-97249652D01*
X138363228Y-97605003D01*
X138576916Y-97924810D01*
X138848890Y-98196784D01*
X139168697Y-98410472D01*
X139524048Y-98557663D01*
X139901286Y-98632700D01*
X140285914Y-98632700D01*
X140663152Y-98557663D01*
X141018503Y-98410472D01*
X141338310Y-98196784D01*
X141610284Y-97924810D01*
X141823972Y-97605003D01*
X141971163Y-97249652D01*
X142046200Y-96872414D01*
X142046200Y-96487786D01*
X141971163Y-96110548D01*
X141823972Y-95755197D01*
X141610284Y-95435390D01*
X141338310Y-95163416D01*
X141018503Y-94949728D01*
X140663152Y-94802537D01*
X140285914Y-94727500D01*
X139901286Y-94727500D01*
X139524048Y-94802537D01*
X139168697Y-94949728D01*
X138848890Y-95163416D01*
X138576916Y-95435390D01*
X138363228Y-95755197D01*
X138216037Y-96110548D01*
X138141000Y-96487786D01*
X132600201Y-96487786D01*
X132600201Y-91251351D01*
X137861600Y-91251351D01*
X137861600Y-91440849D01*
X137898569Y-91626705D01*
X137971086Y-91801778D01*
X138076366Y-91959339D01*
X138210361Y-92093334D01*
X138367922Y-92198614D01*
X138542995Y-92271131D01*
X138728851Y-92308100D01*
X138918349Y-92308100D01*
X139104205Y-92271131D01*
X139279278Y-92198614D01*
X139436839Y-92093334D01*
X139570834Y-91959339D01*
X139676114Y-91801778D01*
X139748631Y-91626705D01*
X139785600Y-91440849D01*
X139785600Y-91251351D01*
X148021600Y-91251351D01*
X148021600Y-91440849D01*
X148058569Y-91626705D01*
X148131086Y-91801778D01*
X148236366Y-91959339D01*
X148370361Y-92093334D01*
X148527922Y-92198614D01*
X148702995Y-92271131D01*
X148888851Y-92308100D01*
X149078349Y-92308100D01*
X149264205Y-92271131D01*
X149439278Y-92198614D01*
X149596839Y-92093334D01*
X149636073Y-92054100D01*
X151230338Y-92054100D01*
X153216329Y-94040092D01*
X153170528Y-94125779D01*
X153115520Y-94307116D01*
X153101600Y-94448448D01*
X153101601Y-95863753D01*
X153115521Y-96005085D01*
X153170529Y-96186422D01*
X153259858Y-96353544D01*
X153380073Y-96500028D01*
X153526557Y-96620243D01*
X153693679Y-96709572D01*
X153875016Y-96764580D01*
X154063600Y-96783154D01*
X154252185Y-96764580D01*
X154433522Y-96709572D01*
X154600644Y-96620243D01*
X154747128Y-96500028D01*
X154867343Y-96353544D01*
X154956672Y-96186422D01*
X155011680Y-96005085D01*
X155025600Y-95863753D01*
X155025600Y-94448447D01*
X155011680Y-94307115D01*
X154956672Y-94125778D01*
X154867343Y-93958656D01*
X154770555Y-93840718D01*
X154761355Y-93747308D01*
X154720871Y-93613849D01*
X154655128Y-93490853D01*
X154566653Y-93383047D01*
X154539644Y-93360881D01*
X152048823Y-90870061D01*
X152026653Y-90843047D01*
X151918847Y-90754572D01*
X151795851Y-90688829D01*
X151662392Y-90648345D01*
X151558374Y-90638100D01*
X151558366Y-90638100D01*
X151523600Y-90634676D01*
X151488834Y-90638100D01*
X149636073Y-90638100D01*
X149596839Y-90598866D01*
X149439278Y-90493586D01*
X149264205Y-90421069D01*
X149078349Y-90384100D01*
X148888851Y-90384100D01*
X148702995Y-90421069D01*
X148527922Y-90493586D01*
X148370361Y-90598866D01*
X148236366Y-90732861D01*
X148131086Y-90890422D01*
X148058569Y-91065495D01*
X148021600Y-91251351D01*
X139785600Y-91251351D01*
X139748631Y-91065495D01*
X139676114Y-90890422D01*
X139570834Y-90732861D01*
X139531600Y-90693627D01*
X139531600Y-89099362D01*
X140386863Y-88244100D01*
X151230338Y-88244100D01*
X155895601Y-92909364D01*
X155895601Y-93841991D01*
X155799857Y-93958656D01*
X155710528Y-94125779D01*
X155655520Y-94307116D01*
X155641600Y-94448448D01*
X155641601Y-95863753D01*
X155655521Y-96005085D01*
X155710529Y-96186422D01*
X155799858Y-96353544D01*
X155920073Y-96500028D01*
X156066557Y-96620243D01*
X156162357Y-96671449D01*
X156181845Y-96707909D01*
X156244927Y-96784774D01*
X156321792Y-96847856D01*
X156409488Y-96894731D01*
X156504643Y-96923595D01*
X156603600Y-96933342D01*
X156702558Y-96923595D01*
X156797713Y-96894731D01*
X156885409Y-96847856D01*
X156962274Y-96784774D01*
X157025356Y-96707909D01*
X157044844Y-96671449D01*
X157140644Y-96620243D01*
X157287128Y-96500028D01*
X157407343Y-96353544D01*
X157496672Y-96186422D01*
X157551680Y-96005085D01*
X157565600Y-95863753D01*
X157565600Y-94448447D01*
X157551680Y-94307115D01*
X157496672Y-94125778D01*
X157407343Y-93958656D01*
X157311600Y-93841992D01*
X157311600Y-92650866D01*
X157315024Y-92616100D01*
X157311600Y-92581333D01*
X157311600Y-92581326D01*
X157301355Y-92477308D01*
X157260871Y-92343849D01*
X157195128Y-92220853D01*
X157106653Y-92113047D01*
X157079644Y-92090881D01*
X156240114Y-91251351D01*
X158181600Y-91251351D01*
X158181600Y-91440849D01*
X158218569Y-91626705D01*
X158291086Y-91801778D01*
X158396366Y-91959339D01*
X158435601Y-91998574D01*
X158435600Y-93841991D01*
X158339857Y-93958656D01*
X158250528Y-94125779D01*
X158195520Y-94307116D01*
X158181600Y-94448448D01*
X158181601Y-95863753D01*
X158195521Y-96005085D01*
X158250529Y-96186422D01*
X158339858Y-96353544D01*
X158460073Y-96500028D01*
X158606557Y-96620243D01*
X158773679Y-96709572D01*
X158955016Y-96764580D01*
X159143600Y-96783154D01*
X159332185Y-96764580D01*
X159513522Y-96709572D01*
X159680644Y-96620243D01*
X159827128Y-96500028D01*
X159947343Y-96353544D01*
X160036672Y-96186422D01*
X160091680Y-96005085D01*
X160105600Y-95863753D01*
X160105600Y-94448447D01*
X160091680Y-94307115D01*
X160036672Y-94125778D01*
X159947343Y-93958656D01*
X159851600Y-93841992D01*
X159851600Y-91998573D01*
X159890834Y-91959339D01*
X159996114Y-91801778D01*
X160068631Y-91626705D01*
X160105600Y-91440849D01*
X160105600Y-91251351D01*
X160068631Y-91065495D01*
X159996114Y-90890422D01*
X159890834Y-90732861D01*
X159756839Y-90598866D01*
X159599278Y-90493586D01*
X159424205Y-90421069D01*
X159238349Y-90384100D01*
X159048851Y-90384100D01*
X158862995Y-90421069D01*
X158687922Y-90493586D01*
X158530361Y-90598866D01*
X158396366Y-90732861D01*
X158291086Y-90890422D01*
X158218569Y-91065495D01*
X158181600Y-91251351D01*
X156240114Y-91251351D01*
X152048823Y-87060061D01*
X152026653Y-87033047D01*
X151918847Y-86944572D01*
X151795851Y-86878829D01*
X151662392Y-86838345D01*
X151558374Y-86828100D01*
X151558366Y-86828100D01*
X151523600Y-86824676D01*
X151488834Y-86828100D01*
X140128366Y-86828100D01*
X140093599Y-86824676D01*
X140058833Y-86828100D01*
X140058826Y-86828100D01*
X139954808Y-86838345D01*
X139821349Y-86878829D01*
X139698353Y-86944572D01*
X139590547Y-87033047D01*
X139568381Y-87060056D01*
X138347557Y-88280881D01*
X138320547Y-88303048D01*
X138232072Y-88410854D01*
X138166329Y-88533850D01*
X138125845Y-88667309D01*
X138115600Y-88771327D01*
X138115600Y-88771334D01*
X138112176Y-88806100D01*
X138115600Y-88840867D01*
X138115601Y-90693626D01*
X138076366Y-90732861D01*
X137971086Y-90890422D01*
X137898569Y-91065495D01*
X137861600Y-91251351D01*
X132600201Y-91251351D01*
X132600201Y-77281351D01*
X135321600Y-77281351D01*
X135321600Y-77470849D01*
X135358569Y-77656705D01*
X135431086Y-77831778D01*
X135536366Y-77989339D01*
X135670361Y-78123334D01*
X135827922Y-78228614D01*
X136002995Y-78301131D01*
X136188851Y-78338100D01*
X136378349Y-78338100D01*
X136564205Y-78301131D01*
X136739278Y-78228614D01*
X136896839Y-78123334D01*
X137030834Y-77989339D01*
X137136114Y-77831778D01*
X137208631Y-77656705D01*
X137245600Y-77470849D01*
X137245600Y-77281351D01*
X137861600Y-77281351D01*
X137861600Y-77470849D01*
X137898569Y-77656705D01*
X137971086Y-77831778D01*
X138076366Y-77989339D01*
X138115601Y-78028574D01*
X138115600Y-83073627D01*
X138076366Y-83112861D01*
X137971086Y-83270422D01*
X137898569Y-83445495D01*
X137861600Y-83631351D01*
X137861600Y-83820849D01*
X137898569Y-84006705D01*
X137971086Y-84181778D01*
X138076366Y-84339339D01*
X138210361Y-84473334D01*
X138367922Y-84578614D01*
X138542995Y-84651131D01*
X138728851Y-84688100D01*
X138918349Y-84688100D01*
X139104205Y-84651131D01*
X139279278Y-84578614D01*
X139436839Y-84473334D01*
X139570834Y-84339339D01*
X139676114Y-84181778D01*
X139748631Y-84006705D01*
X139785600Y-83820849D01*
X139785600Y-83631351D01*
X139748631Y-83445495D01*
X139676114Y-83270422D01*
X139570834Y-83112861D01*
X139531600Y-83073627D01*
X139531600Y-78028573D01*
X139570834Y-77989339D01*
X139676114Y-77831778D01*
X139748631Y-77656705D01*
X139785600Y-77470849D01*
X139785600Y-77281351D01*
X145481600Y-77281351D01*
X145481600Y-77470849D01*
X145518569Y-77656705D01*
X145591086Y-77831778D01*
X145696366Y-77989339D01*
X145830361Y-78123334D01*
X145987922Y-78228614D01*
X146162995Y-78301131D01*
X146348851Y-78338100D01*
X146538349Y-78338100D01*
X146724205Y-78301131D01*
X146899278Y-78228614D01*
X147056839Y-78123334D01*
X147190834Y-77989339D01*
X147296114Y-77831778D01*
X147368631Y-77656705D01*
X147405600Y-77470849D01*
X147405600Y-77281351D01*
X148021600Y-77281351D01*
X148021600Y-77470849D01*
X148058569Y-77656705D01*
X148131086Y-77831778D01*
X148236366Y-77989339D01*
X148275601Y-78028574D01*
X148275600Y-83073627D01*
X148236366Y-83112861D01*
X148131086Y-83270422D01*
X148058569Y-83445495D01*
X148021600Y-83631351D01*
X148021600Y-83820849D01*
X148058569Y-84006705D01*
X148131086Y-84181778D01*
X148236366Y-84339339D01*
X148370361Y-84473334D01*
X148527922Y-84578614D01*
X148702995Y-84651131D01*
X148888851Y-84688100D01*
X149078349Y-84688100D01*
X149264205Y-84651131D01*
X149439278Y-84578614D01*
X149596839Y-84473334D01*
X149730834Y-84339339D01*
X149836114Y-84181778D01*
X149908631Y-84006705D01*
X149945600Y-83820849D01*
X149945600Y-83631351D01*
X149908631Y-83445495D01*
X149836114Y-83270422D01*
X149730834Y-83112861D01*
X149691600Y-83073627D01*
X149691600Y-78028573D01*
X149730834Y-77989339D01*
X149836114Y-77831778D01*
X149908631Y-77656705D01*
X149945600Y-77470849D01*
X149945600Y-77281351D01*
X155641600Y-77281351D01*
X155641600Y-77470849D01*
X155678569Y-77656705D01*
X155751086Y-77831778D01*
X155856366Y-77989339D01*
X155990361Y-78123334D01*
X156147922Y-78228614D01*
X156322995Y-78301131D01*
X156508851Y-78338100D01*
X156698349Y-78338100D01*
X156884205Y-78301131D01*
X157059278Y-78228614D01*
X157216839Y-78123334D01*
X157350834Y-77989339D01*
X157456114Y-77831778D01*
X157528631Y-77656705D01*
X157565600Y-77470849D01*
X157565600Y-77281351D01*
X158181600Y-77281351D01*
X158181600Y-77470849D01*
X158218569Y-77656705D01*
X158291086Y-77831778D01*
X158396366Y-77989339D01*
X158435601Y-78028574D01*
X158435600Y-83073627D01*
X158396366Y-83112861D01*
X158291086Y-83270422D01*
X158218569Y-83445495D01*
X158181600Y-83631351D01*
X158181600Y-83820849D01*
X158218569Y-84006705D01*
X158291086Y-84181778D01*
X158396366Y-84339339D01*
X158530361Y-84473334D01*
X158687922Y-84578614D01*
X158862995Y-84651131D01*
X159048851Y-84688100D01*
X159238349Y-84688100D01*
X159424205Y-84651131D01*
X159599278Y-84578614D01*
X159756839Y-84473334D01*
X159890834Y-84339339D01*
X159996114Y-84181778D01*
X160068631Y-84006705D01*
X160105600Y-83820849D01*
X160105600Y-83631351D01*
X160068631Y-83445495D01*
X159996114Y-83270422D01*
X159890834Y-83112861D01*
X159851600Y-83073627D01*
X159851600Y-78028573D01*
X159890834Y-77989339D01*
X159996114Y-77831778D01*
X160068631Y-77656705D01*
X160105600Y-77470849D01*
X160105600Y-77281351D01*
X160068631Y-77095495D01*
X159996114Y-76920422D01*
X159890834Y-76762861D01*
X159756839Y-76628866D01*
X159599278Y-76523586D01*
X159424205Y-76451069D01*
X159238349Y-76414100D01*
X159048851Y-76414100D01*
X158862995Y-76451069D01*
X158687922Y-76523586D01*
X158530361Y-76628866D01*
X158396366Y-76762861D01*
X158291086Y-76920422D01*
X158218569Y-77095495D01*
X158181600Y-77281351D01*
X157565600Y-77281351D01*
X157528631Y-77095495D01*
X157456114Y-76920422D01*
X157350834Y-76762861D01*
X157216839Y-76628866D01*
X157059278Y-76523586D01*
X156884205Y-76451069D01*
X156698349Y-76414100D01*
X156508851Y-76414100D01*
X156322995Y-76451069D01*
X156147922Y-76523586D01*
X155990361Y-76628866D01*
X155856366Y-76762861D01*
X155751086Y-76920422D01*
X155678569Y-77095495D01*
X155641600Y-77281351D01*
X149945600Y-77281351D01*
X149908631Y-77095495D01*
X149836114Y-76920422D01*
X149730834Y-76762861D01*
X149596839Y-76628866D01*
X149439278Y-76523586D01*
X149264205Y-76451069D01*
X149078349Y-76414100D01*
X148888851Y-76414100D01*
X148702995Y-76451069D01*
X148527922Y-76523586D01*
X148370361Y-76628866D01*
X148236366Y-76762861D01*
X148131086Y-76920422D01*
X148058569Y-77095495D01*
X148021600Y-77281351D01*
X147405600Y-77281351D01*
X147368631Y-77095495D01*
X147296114Y-76920422D01*
X147190834Y-76762861D01*
X147056839Y-76628866D01*
X146899278Y-76523586D01*
X146724205Y-76451069D01*
X146538349Y-76414100D01*
X146348851Y-76414100D01*
X146162995Y-76451069D01*
X145987922Y-76523586D01*
X145830361Y-76628866D01*
X145696366Y-76762861D01*
X145591086Y-76920422D01*
X145518569Y-77095495D01*
X145481600Y-77281351D01*
X139785600Y-77281351D01*
X139748631Y-77095495D01*
X139676114Y-76920422D01*
X139570834Y-76762861D01*
X139436839Y-76628866D01*
X139279278Y-76523586D01*
X139104205Y-76451069D01*
X138918349Y-76414100D01*
X138728851Y-76414100D01*
X138542995Y-76451069D01*
X138367922Y-76523586D01*
X138210361Y-76628866D01*
X138076366Y-76762861D01*
X137971086Y-76920422D01*
X137898569Y-77095495D01*
X137861600Y-77281351D01*
X137245600Y-77281351D01*
X137208631Y-77095495D01*
X137136114Y-76920422D01*
X137030834Y-76762861D01*
X136896839Y-76628866D01*
X136739278Y-76523586D01*
X136564205Y-76451069D01*
X136378349Y-76414100D01*
X136188851Y-76414100D01*
X136002995Y-76451069D01*
X135827922Y-76523586D01*
X135670361Y-76628866D01*
X135536366Y-76762861D01*
X135431086Y-76920422D01*
X135358569Y-77095495D01*
X135321600Y-77281351D01*
X132600201Y-77281351D01*
X132600201Y-73702701D01*
X164325200Y-73702701D01*
X164325200Y-129547700D01*
%TA.AperFunction,Conductor*%
D20*
G36*
X164325200Y-129547700D02*
G01*
X132600201Y-129547700D01*
X132600201Y-116623833D01*
X136312200Y-116623833D01*
X136312200Y-116868367D01*
X136359906Y-117108203D01*
X136453485Y-117334124D01*
X136589341Y-117537447D01*
X136762253Y-117710359D01*
X136845601Y-117766050D01*
X136845600Y-125601701D01*
X136842176Y-125636844D01*
X136848957Y-125704960D01*
X136855845Y-125774891D01*
X136855956Y-125775256D01*
X136855992Y-125775621D01*
X136876012Y-125841374D01*
X136896329Y-125908350D01*
X136896505Y-125908680D01*
X136896614Y-125909037D01*
X136929260Y-125969959D01*
X136962072Y-126031346D01*
X136962311Y-126031637D01*
X136962486Y-126031964D01*
X137006470Y-126085445D01*
X137050547Y-126139152D01*
X137050835Y-126139388D01*
X137051074Y-126139679D01*
X137104652Y-126183556D01*
X137158353Y-126227628D01*
X137189504Y-126244278D01*
X140941629Y-128745696D01*
X140968353Y-128767628D01*
X140999499Y-128784276D01*
X140999805Y-128784480D01*
X141029993Y-128800575D01*
X141091349Y-128833371D01*
X141091707Y-128833480D01*
X141092036Y-128833655D01*
X141158419Y-128853716D01*
X141224808Y-128873855D01*
X141225179Y-128873892D01*
X141225538Y-128874000D01*
X141294395Y-128880709D01*
X141328826Y-128884100D01*
X141329201Y-128884100D01*
X141364344Y-128887524D01*
X141398737Y-128884100D01*
X154638594Y-128884100D01*
X154648169Y-128885735D01*
X154708200Y-128884100D01*
X154733374Y-128884100D01*
X154742996Y-128883152D01*
X154787580Y-128881938D01*
X154812228Y-128876333D01*
X154837392Y-128873855D01*
X154880088Y-128860903D01*
X154923572Y-128851016D01*
X154946650Y-128840712D01*
X154970851Y-128833371D01*
X155010198Y-128812340D01*
X155050918Y-128794159D01*
X155071546Y-128779548D01*
X155093847Y-128767628D01*
X155128330Y-128739328D01*
X155164726Y-128713549D01*
X155182109Y-128695192D01*
X155201653Y-128679153D01*
X155229955Y-128644667D01*
X155260621Y-128612284D01*
X155274086Y-128590894D01*
X155290128Y-128571347D01*
X155311157Y-128532005D01*
X155316303Y-128523830D01*
X155327553Y-128501331D01*
X155355871Y-128448351D01*
X155358692Y-128439053D01*
X155940064Y-127276306D01*
X156089318Y-127153818D01*
X156222230Y-126991863D01*
X156320993Y-126807091D01*
X156381810Y-126606602D01*
X156397200Y-126450347D01*
X156397200Y-124821853D01*
X156381810Y-124665598D01*
X156320993Y-124465109D01*
X156222230Y-124280337D01*
X156089318Y-124118382D01*
X155927363Y-123985470D01*
X155742590Y-123886707D01*
X155542101Y-123825890D01*
X155333600Y-123805354D01*
X155125098Y-123825890D01*
X154924609Y-123886707D01*
X154739837Y-123985470D01*
X154577882Y-124118382D01*
X154444970Y-124280337D01*
X154346207Y-124465110D01*
X154285390Y-124665599D01*
X154270000Y-124821854D01*
X154270000Y-126450347D01*
X154285391Y-126606602D01*
X154346208Y-126807091D01*
X154444971Y-126991863D01*
X154478638Y-127032887D01*
X154261033Y-127468100D01*
X141577965Y-127468100D01*
X138261600Y-125257191D01*
X138261600Y-124821854D01*
X141570000Y-124821854D01*
X141570000Y-126450347D01*
X141585391Y-126606602D01*
X141646208Y-126807091D01*
X141744971Y-126991863D01*
X141877883Y-127153818D01*
X142039838Y-127286730D01*
X142224610Y-127385493D01*
X142425099Y-127446310D01*
X142633600Y-127466846D01*
X142842102Y-127446310D01*
X143042591Y-127385493D01*
X143227363Y-127286730D01*
X143389318Y-127153818D01*
X143522230Y-126991863D01*
X143620993Y-126807091D01*
X143681810Y-126606602D01*
X143697200Y-126450347D01*
X143697200Y-124821854D01*
X144110000Y-124821854D01*
X144110000Y-126450347D01*
X144125391Y-126606602D01*
X144186208Y-126807091D01*
X144284971Y-126991863D01*
X144417883Y-127153818D01*
X144579838Y-127286730D01*
X144764610Y-127385493D01*
X144965099Y-127446310D01*
X145173600Y-127466846D01*
X145382102Y-127446310D01*
X145582591Y-127385493D01*
X145767363Y-127286730D01*
X145929318Y-127153818D01*
X146062230Y-126991863D01*
X146160993Y-126807091D01*
X146221810Y-126606602D01*
X146237200Y-126450347D01*
X146237200Y-124821854D01*
X146650000Y-124821854D01*
X146650000Y-126450347D01*
X146665391Y-126606602D01*
X146726208Y-126807091D01*
X146824971Y-126991863D01*
X146957883Y-127153818D01*
X147119838Y-127286730D01*
X147304610Y-127385493D01*
X147505099Y-127446310D01*
X147713600Y-127466846D01*
X147922102Y-127446310D01*
X148122591Y-127385493D01*
X148307363Y-127286730D01*
X148469318Y-127153818D01*
X148602230Y-126991863D01*
X148700993Y-126807091D01*
X148761810Y-126606602D01*
X148777200Y-126450347D01*
X148777200Y-124821854D01*
X149190000Y-124821854D01*
X149190000Y-126450347D01*
X149205391Y-126606602D01*
X149266208Y-126807091D01*
X149364971Y-126991863D01*
X149497883Y-127153818D01*
X149659838Y-127286730D01*
X149844610Y-127385493D01*
X150045099Y-127446310D01*
X150253600Y-127466846D01*
X150462102Y-127446310D01*
X150662591Y-127385493D01*
X150847363Y-127286730D01*
X151009318Y-127153818D01*
X151142230Y-126991863D01*
X151240993Y-126807091D01*
X151301810Y-126606602D01*
X151317200Y-126450347D01*
X151317200Y-124821854D01*
X151730000Y-124821854D01*
X151730000Y-126450347D01*
X151745391Y-126606602D01*
X151806208Y-126807091D01*
X151904971Y-126991863D01*
X152037883Y-127153818D01*
X152199838Y-127286730D01*
X152384610Y-127385493D01*
X152585099Y-127446310D01*
X152793600Y-127466846D01*
X153002102Y-127446310D01*
X153202591Y-127385493D01*
X153387363Y-127286730D01*
X153549318Y-127153818D01*
X153682230Y-126991863D01*
X153780993Y-126807091D01*
X153841810Y-126606602D01*
X153857200Y-126450347D01*
X153857200Y-124821853D01*
X153841810Y-124665598D01*
X153780993Y-124465109D01*
X153682230Y-124280337D01*
X153549318Y-124118382D01*
X153387363Y-123985470D01*
X153202590Y-123886707D01*
X153002101Y-123825890D01*
X152793600Y-123805354D01*
X152585098Y-123825890D01*
X152384609Y-123886707D01*
X152199837Y-123985470D01*
X152037882Y-124118382D01*
X151904970Y-124280337D01*
X151806207Y-124465110D01*
X151745390Y-124665599D01*
X151730000Y-124821854D01*
X151317200Y-124821854D01*
X151317200Y-124821853D01*
X151301810Y-124665598D01*
X151240993Y-124465109D01*
X151142230Y-124280337D01*
X151009318Y-124118382D01*
X150847363Y-123985470D01*
X150662590Y-123886707D01*
X150462101Y-123825890D01*
X150253600Y-123805354D01*
X150045098Y-123825890D01*
X149844609Y-123886707D01*
X149659837Y-123985470D01*
X149497882Y-124118382D01*
X149364970Y-124280337D01*
X149266207Y-124465110D01*
X149205390Y-124665599D01*
X149190000Y-124821854D01*
X148777200Y-124821854D01*
X148777200Y-124821853D01*
X148761810Y-124665598D01*
X148700993Y-124465109D01*
X148602230Y-124280337D01*
X148469318Y-124118382D01*
X148307363Y-123985470D01*
X148122590Y-123886707D01*
X147922101Y-123825890D01*
X147713600Y-123805354D01*
X147505098Y-123825890D01*
X147304609Y-123886707D01*
X147119837Y-123985470D01*
X146957882Y-124118382D01*
X146824970Y-124280337D01*
X146726207Y-124465110D01*
X146665390Y-124665599D01*
X146650000Y-124821854D01*
X146237200Y-124821854D01*
X146237200Y-124821853D01*
X146221810Y-124665598D01*
X146160993Y-124465109D01*
X146062230Y-124280337D01*
X145929318Y-124118382D01*
X145767363Y-123985470D01*
X145582590Y-123886707D01*
X145382101Y-123825890D01*
X145173600Y-123805354D01*
X144965098Y-123825890D01*
X144764609Y-123886707D01*
X144579837Y-123985470D01*
X144417882Y-124118382D01*
X144284970Y-124280337D01*
X144186207Y-124465110D01*
X144125390Y-124665599D01*
X144110000Y-124821854D01*
X143697200Y-124821854D01*
X143697200Y-124821853D01*
X143681810Y-124665598D01*
X143620993Y-124465109D01*
X143522230Y-124280337D01*
X143389318Y-124118382D01*
X143227363Y-123985470D01*
X143042590Y-123886707D01*
X142842101Y-123825890D01*
X142633600Y-123805354D01*
X142425098Y-123825890D01*
X142224609Y-123886707D01*
X142039837Y-123985470D01*
X141877882Y-124118382D01*
X141744970Y-124280337D01*
X141646207Y-124465110D01*
X141585390Y-124665599D01*
X141570000Y-124821854D01*
X138261600Y-124821854D01*
X138261600Y-117766050D01*
X138344947Y-117710359D01*
X138517859Y-117537447D01*
X138653715Y-117334124D01*
X138747294Y-117108203D01*
X138795000Y-116868367D01*
X138795000Y-116623833D01*
X138751530Y-116405293D01*
X138871756Y-116525519D01*
X138852200Y-116623833D01*
X138852200Y-116868367D01*
X138899906Y-117108203D01*
X138993485Y-117334124D01*
X139129341Y-117537447D01*
X139302253Y-117710359D01*
X139505576Y-117846215D01*
X139731497Y-117939794D01*
X139971333Y-117987500D01*
X140215867Y-117987500D01*
X140455703Y-117939794D01*
X140681624Y-117846215D01*
X140884947Y-117710359D01*
X141057859Y-117537447D01*
X141193715Y-117334124D01*
X141287294Y-117108203D01*
X141335000Y-116868367D01*
X141335000Y-116623833D01*
X141392200Y-116623833D01*
X141392200Y-116868367D01*
X141439906Y-117108203D01*
X141533485Y-117334124D01*
X141669341Y-117537447D01*
X141842253Y-117710359D01*
X142045576Y-117846215D01*
X142271497Y-117939794D01*
X142511333Y-117987500D01*
X142755867Y-117987500D01*
X142995703Y-117939794D01*
X143221624Y-117846215D01*
X143424947Y-117710359D01*
X143597859Y-117537447D01*
X143733715Y-117334124D01*
X143827294Y-117108203D01*
X143875000Y-116868367D01*
X143875000Y-116623833D01*
X143827294Y-116383997D01*
X143733715Y-116158076D01*
X143597859Y-115954753D01*
X143424947Y-115781841D01*
X143221624Y-115645985D01*
X142995703Y-115552406D01*
X142755867Y-115504700D01*
X142511333Y-115504700D01*
X142271497Y-115552406D01*
X142045576Y-115645985D01*
X141842253Y-115781841D01*
X141669341Y-115954753D01*
X141533485Y-116158076D01*
X141439906Y-116383997D01*
X141392200Y-116623833D01*
X141335000Y-116623833D01*
X141287294Y-116383997D01*
X141193715Y-116158076D01*
X141057859Y-115954753D01*
X140884947Y-115781841D01*
X140681624Y-115645985D01*
X140455703Y-115552406D01*
X140215867Y-115504700D01*
X139971333Y-115504700D01*
X139873019Y-115524256D01*
X138261600Y-113912838D01*
X138261600Y-113222979D01*
X138309318Y-113183818D01*
X138442230Y-113021863D01*
X138540993Y-112837091D01*
X138601810Y-112636602D01*
X138617200Y-112480347D01*
X138617200Y-110851854D01*
X139030000Y-110851854D01*
X139030000Y-112480347D01*
X139045391Y-112636602D01*
X139106208Y-112837091D01*
X139204971Y-113021863D01*
X139337883Y-113183818D01*
X139499838Y-113316730D01*
X139684610Y-113415493D01*
X139885099Y-113476310D01*
X140093600Y-113496846D01*
X140302102Y-113476310D01*
X140502591Y-113415493D01*
X140687363Y-113316730D01*
X140849318Y-113183818D01*
X140982230Y-113021863D01*
X141080993Y-112837091D01*
X141141810Y-112636602D01*
X141157200Y-112480347D01*
X141157200Y-110851854D01*
X141570000Y-110851854D01*
X141570000Y-112480347D01*
X141585391Y-112636602D01*
X141646208Y-112837091D01*
X141744971Y-113021863D01*
X141877883Y-113183818D01*
X142039838Y-113316730D01*
X142224610Y-113415493D01*
X142425099Y-113476310D01*
X142633600Y-113496846D01*
X142842102Y-113476310D01*
X143042591Y-113415493D01*
X143227363Y-113316730D01*
X143389318Y-113183818D01*
X143522230Y-113021863D01*
X143620993Y-112837091D01*
X143681810Y-112636602D01*
X143685602Y-112598100D01*
X147152541Y-112598100D01*
X147152541Y-115814100D01*
X147158364Y-115873224D01*
X147175610Y-115930076D01*
X147203616Y-115982471D01*
X147241305Y-116028395D01*
X147287229Y-116066084D01*
X147339624Y-116094090D01*
X147396476Y-116111336D01*
X147455600Y-116117159D01*
X150671600Y-116117159D01*
X150730724Y-116111336D01*
X150787576Y-116094090D01*
X150839971Y-116066084D01*
X150885895Y-116028395D01*
X150923584Y-115982471D01*
X150951590Y-115930076D01*
X150968836Y-115873224D01*
X150974659Y-115814100D01*
X150974659Y-112598100D01*
X157152541Y-112598100D01*
X157152541Y-115814100D01*
X157158364Y-115873224D01*
X157175610Y-115930076D01*
X157203616Y-115982471D01*
X157241305Y-116028395D01*
X157287229Y-116066084D01*
X157339624Y-116094090D01*
X157396476Y-116111336D01*
X157455600Y-116117159D01*
X160671600Y-116117159D01*
X160730724Y-116111336D01*
X160787576Y-116094090D01*
X160839971Y-116066084D01*
X160885895Y-116028395D01*
X160923584Y-115982471D01*
X160951590Y-115930076D01*
X160968836Y-115873224D01*
X160974659Y-115814100D01*
X160974659Y-112598100D01*
X160968836Y-112538976D01*
X160951590Y-112482124D01*
X160923584Y-112429729D01*
X160885895Y-112383805D01*
X160839971Y-112346116D01*
X160787576Y-112318110D01*
X160730724Y-112300864D01*
X160671600Y-112295041D01*
X157455600Y-112295041D01*
X157396476Y-112300864D01*
X157339624Y-112318110D01*
X157287229Y-112346116D01*
X157241305Y-112383805D01*
X157203616Y-112429729D01*
X157175610Y-112482124D01*
X157158364Y-112538976D01*
X157152541Y-112598100D01*
X150974659Y-112598100D01*
X150968836Y-112538976D01*
X150951590Y-112482124D01*
X150923584Y-112429729D01*
X150885895Y-112383805D01*
X150839971Y-112346116D01*
X150787576Y-112318110D01*
X150730724Y-112300864D01*
X150671600Y-112295041D01*
X147455600Y-112295041D01*
X147396476Y-112300864D01*
X147339624Y-112318110D01*
X147287229Y-112346116D01*
X147241305Y-112383805D01*
X147203616Y-112429729D01*
X147175610Y-112482124D01*
X147158364Y-112538976D01*
X147152541Y-112598100D01*
X143685602Y-112598100D01*
X143697200Y-112480347D01*
X143697200Y-112374100D01*
X146408834Y-112374100D01*
X146443600Y-112377524D01*
X146478366Y-112374100D01*
X146478374Y-112374100D01*
X146582392Y-112363855D01*
X146715851Y-112323371D01*
X146838847Y-112257628D01*
X146946653Y-112169153D01*
X146968823Y-112142139D01*
X149459649Y-109651314D01*
X149486652Y-109629153D01*
X149508814Y-109602149D01*
X149508820Y-109602143D01*
X149541794Y-109561963D01*
X149575128Y-109521347D01*
X149640871Y-109398351D01*
X149681355Y-109264892D01*
X149691600Y-109160874D01*
X149691600Y-109160865D01*
X149695024Y-109126101D01*
X149691600Y-109091337D01*
X149691600Y-107929100D01*
X150360541Y-107929100D01*
X150360541Y-108106100D01*
X150366364Y-108165224D01*
X150383610Y-108222076D01*
X150411616Y-108274471D01*
X150449305Y-108320395D01*
X150495229Y-108358084D01*
X150547624Y-108386090D01*
X150604476Y-108403336D01*
X150663600Y-108409159D01*
X152463600Y-108409159D01*
X152522724Y-108403336D01*
X152579576Y-108386090D01*
X152631971Y-108358084D01*
X152677895Y-108320395D01*
X152715584Y-108274471D01*
X152743590Y-108222076D01*
X152760836Y-108165224D01*
X152766659Y-108106100D01*
X152766659Y-106306100D01*
X152860541Y-106306100D01*
X152860541Y-108106100D01*
X152866364Y-108165224D01*
X152883610Y-108222076D01*
X152911616Y-108274471D01*
X152949305Y-108320395D01*
X152995229Y-108358084D01*
X153047624Y-108386090D01*
X153104476Y-108403336D01*
X153163600Y-108409159D01*
X154963600Y-108409159D01*
X155022724Y-108403336D01*
X155079576Y-108386090D01*
X155131971Y-108358084D01*
X155177895Y-108320395D01*
X155215584Y-108274471D01*
X155243590Y-108222076D01*
X155260836Y-108165224D01*
X155266659Y-108106100D01*
X155266659Y-106306100D01*
X155360541Y-106306100D01*
X155360541Y-108106100D01*
X155366364Y-108165224D01*
X155383610Y-108222076D01*
X155411616Y-108274471D01*
X155449305Y-108320395D01*
X155495229Y-108358084D01*
X155547624Y-108386090D01*
X155604476Y-108403336D01*
X155663600Y-108409159D01*
X157463600Y-108409159D01*
X157522724Y-108403336D01*
X157579576Y-108386090D01*
X157631971Y-108358084D01*
X157677895Y-108320395D01*
X157715584Y-108274471D01*
X157743590Y-108222076D01*
X157760836Y-108165224D01*
X157766659Y-108106100D01*
X157766659Y-106306100D01*
X157760836Y-106246976D01*
X157743590Y-106190124D01*
X157715584Y-106137729D01*
X157677895Y-106091805D01*
X157631971Y-106054116D01*
X157579576Y-106026110D01*
X157522724Y-106008864D01*
X157463600Y-106003041D01*
X155663600Y-106003041D01*
X155604476Y-106008864D01*
X155547624Y-106026110D01*
X155495229Y-106054116D01*
X155449305Y-106091805D01*
X155411616Y-106137729D01*
X155383610Y-106190124D01*
X155366364Y-106246976D01*
X155360541Y-106306100D01*
X155266659Y-106306100D01*
X155260836Y-106246976D01*
X155243590Y-106190124D01*
X155215584Y-106137729D01*
X155177895Y-106091805D01*
X155131971Y-106054116D01*
X155079576Y-106026110D01*
X155022724Y-106008864D01*
X154963600Y-106003041D01*
X154771600Y-106003041D01*
X154771600Y-104090208D01*
X154867343Y-103973544D01*
X154956672Y-103806422D01*
X155011680Y-103625085D01*
X155025600Y-103483753D01*
X155025600Y-102068448D01*
X155641600Y-102068448D01*
X155641601Y-103483753D01*
X155655521Y-103625085D01*
X155710529Y-103806422D01*
X155799858Y-103973544D01*
X155920073Y-104120028D01*
X156066557Y-104240243D01*
X156233679Y-104329572D01*
X156415016Y-104384580D01*
X156603600Y-104403154D01*
X156792185Y-104384580D01*
X156973522Y-104329572D01*
X157140644Y-104240243D01*
X157287128Y-104120028D01*
X157407343Y-103973544D01*
X157496672Y-103806422D01*
X157551680Y-103625085D01*
X157565600Y-103483753D01*
X157565600Y-102902700D01*
X157925200Y-102902700D01*
X157925200Y-103563100D01*
X157973310Y-103798365D01*
X158066393Y-104019724D01*
X158200873Y-104218670D01*
X158371581Y-104387558D01*
X158571957Y-104519897D01*
X158794301Y-104610602D01*
X158828991Y-104613581D01*
X159017000Y-104507947D01*
X159017000Y-102902700D01*
X159270200Y-102902700D01*
X159270200Y-104507947D01*
X159458209Y-104613581D01*
X159492899Y-104610602D01*
X159715243Y-104519897D01*
X159915619Y-104387558D01*
X160086327Y-104218670D01*
X160220807Y-104019724D01*
X160313890Y-103798365D01*
X160362000Y-103563100D01*
X160362000Y-102902700D01*
X159270200Y-102902700D01*
X159017000Y-102902700D01*
X157925200Y-102902700D01*
X157565600Y-102902700D01*
X157565600Y-102068447D01*
X157557785Y-101989100D01*
X157925200Y-101989100D01*
X157925200Y-102649500D01*
X159017000Y-102649500D01*
X159017000Y-101044253D01*
X159270200Y-101044253D01*
X159270200Y-102649500D01*
X160362000Y-102649500D01*
X160362000Y-101989100D01*
X160313890Y-101753835D01*
X160220807Y-101532476D01*
X160086327Y-101333530D01*
X159915619Y-101164642D01*
X159715243Y-101032303D01*
X159492899Y-100941598D01*
X159458209Y-100938619D01*
X159270200Y-101044253D01*
X159017000Y-101044253D01*
X158828991Y-100938619D01*
X158794301Y-100941598D01*
X158571957Y-101032303D01*
X158371581Y-101164642D01*
X158200873Y-101333530D01*
X158066393Y-101532476D01*
X157973310Y-101753835D01*
X157925200Y-101989100D01*
X157557785Y-101989100D01*
X157551680Y-101927115D01*
X157496672Y-101745778D01*
X157407343Y-101578656D01*
X157287128Y-101432172D01*
X157140644Y-101311957D01*
X156973521Y-101222628D01*
X156792184Y-101167620D01*
X156603600Y-101149046D01*
X156415015Y-101167620D01*
X156233678Y-101222628D01*
X156066556Y-101311957D01*
X155920072Y-101432172D01*
X155799857Y-101578656D01*
X155710528Y-101745779D01*
X155655520Y-101927116D01*
X155641600Y-102068448D01*
X155025600Y-102068448D01*
X155025600Y-102068447D01*
X155011680Y-101927115D01*
X154956672Y-101745778D01*
X154867343Y-101578656D01*
X154747128Y-101432172D01*
X154600644Y-101311957D01*
X154433521Y-101222628D01*
X154252184Y-101167620D01*
X154063600Y-101149046D01*
X153875015Y-101167620D01*
X153693678Y-101222628D01*
X153526556Y-101311957D01*
X153380072Y-101432172D01*
X153259857Y-101578656D01*
X153170528Y-101745779D01*
X153115520Y-101927116D01*
X153101600Y-102068448D01*
X153101601Y-103483753D01*
X153115521Y-103625085D01*
X153170529Y-103806422D01*
X153259858Y-103973544D01*
X153355601Y-104090208D01*
X153355600Y-106003041D01*
X153163600Y-106003041D01*
X153104476Y-106008864D01*
X153047624Y-106026110D01*
X152995229Y-106054116D01*
X152949305Y-106091805D01*
X152911616Y-106137729D01*
X152883610Y-106190124D01*
X152866364Y-106246976D01*
X152860541Y-106306100D01*
X152766659Y-106306100D01*
X152760836Y-106246976D01*
X152743590Y-106190124D01*
X152715584Y-106137729D01*
X152677895Y-106091805D01*
X152631971Y-106054116D01*
X152579576Y-106026110D01*
X152522724Y-106008864D01*
X152463600Y-106003041D01*
X150663600Y-106003041D01*
X150604476Y-106008864D01*
X150547624Y-106026110D01*
X150495229Y-106054116D01*
X150449305Y-106091805D01*
X150411616Y-106137729D01*
X150383610Y-106190124D01*
X150366364Y-106246976D01*
X150360541Y-106306100D01*
X150360541Y-106513100D01*
X149691600Y-106513100D01*
X149691600Y-102068448D01*
X150561600Y-102068448D01*
X150561601Y-103483753D01*
X150575521Y-103625085D01*
X150630529Y-103806422D01*
X150719858Y-103973544D01*
X150840073Y-104120028D01*
X150986557Y-104240243D01*
X151153679Y-104329572D01*
X151335016Y-104384580D01*
X151523600Y-104403154D01*
X151712185Y-104384580D01*
X151893522Y-104329572D01*
X152060644Y-104240243D01*
X152207128Y-104120028D01*
X152327343Y-103973544D01*
X152416672Y-103806422D01*
X152471680Y-103625085D01*
X152485600Y-103483753D01*
X152485600Y-102068447D01*
X152471680Y-101927115D01*
X152416672Y-101745778D01*
X152327343Y-101578656D01*
X152207128Y-101432172D01*
X152060644Y-101311957D01*
X151893521Y-101222628D01*
X151712184Y-101167620D01*
X151523600Y-101149046D01*
X151335015Y-101167620D01*
X151153678Y-101222628D01*
X150986556Y-101311957D01*
X150840072Y-101432172D01*
X150719857Y-101578656D01*
X150630528Y-101745779D01*
X150575520Y-101927116D01*
X150561600Y-102068448D01*
X149691600Y-102068448D01*
X149691600Y-96719362D01*
X150546863Y-95864100D01*
X150561635Y-95864100D01*
X150575521Y-96005085D01*
X150630529Y-96186422D01*
X150719858Y-96353544D01*
X150840073Y-96500028D01*
X150986557Y-96620243D01*
X151153679Y-96709572D01*
X151335016Y-96764580D01*
X151523600Y-96783154D01*
X151712185Y-96764580D01*
X151893522Y-96709572D01*
X152060644Y-96620243D01*
X152207128Y-96500028D01*
X152327343Y-96353544D01*
X152416672Y-96186422D01*
X152471680Y-96005085D01*
X152485600Y-95863753D01*
X152485600Y-94448447D01*
X152471680Y-94307115D01*
X152416672Y-94125778D01*
X152327343Y-93958656D01*
X152207128Y-93812172D01*
X152060644Y-93691957D01*
X151893521Y-93602628D01*
X151712184Y-93547620D01*
X151523600Y-93529046D01*
X151335015Y-93547620D01*
X151153678Y-93602628D01*
X150986556Y-93691957D01*
X150840072Y-93812172D01*
X150719857Y-93958656D01*
X150630528Y-94125779D01*
X150575520Y-94307116D01*
X150561634Y-94448100D01*
X150288366Y-94448100D01*
X150253599Y-94444676D01*
X150218833Y-94448100D01*
X150218826Y-94448100D01*
X150114808Y-94458345D01*
X149981349Y-94498829D01*
X149858353Y-94564572D01*
X149750547Y-94653047D01*
X149728381Y-94680056D01*
X148507556Y-95900882D01*
X148480548Y-95923047D01*
X148458382Y-95950056D01*
X148458380Y-95950058D01*
X148392072Y-96030854D01*
X148326329Y-96153850D01*
X148285845Y-96287309D01*
X148272176Y-96426100D01*
X148275601Y-96460876D01*
X148275600Y-107186326D01*
X148272175Y-107221100D01*
X148275601Y-107255884D01*
X148275600Y-108832837D01*
X146150338Y-110958100D01*
X143697200Y-110958100D01*
X143697200Y-110851853D01*
X143681810Y-110695598D01*
X143620993Y-110495109D01*
X143522230Y-110310337D01*
X143389318Y-110148382D01*
X143227363Y-110015470D01*
X143042590Y-109916707D01*
X142842101Y-109855890D01*
X142633600Y-109835354D01*
X142425098Y-109855890D01*
X142224609Y-109916707D01*
X142039837Y-110015470D01*
X141877882Y-110148382D01*
X141744970Y-110310337D01*
X141646207Y-110495110D01*
X141585390Y-110695599D01*
X141570000Y-110851854D01*
X141157200Y-110851854D01*
X141157200Y-110851853D01*
X141141810Y-110695598D01*
X141080993Y-110495109D01*
X140982230Y-110310337D01*
X140849318Y-110148382D01*
X140687363Y-110015470D01*
X140502590Y-109916707D01*
X140302101Y-109855890D01*
X140093600Y-109835354D01*
X139885098Y-109855890D01*
X139684609Y-109916707D01*
X139499837Y-110015470D01*
X139337882Y-110148382D01*
X139204970Y-110310337D01*
X139106207Y-110495110D01*
X139045390Y-110695599D01*
X139030000Y-110851854D01*
X138617200Y-110851854D01*
X138617200Y-110851853D01*
X138601810Y-110695598D01*
X138540993Y-110495109D01*
X138442230Y-110310337D01*
X138309318Y-110148382D01*
X138147363Y-110015470D01*
X137962590Y-109916707D01*
X137762101Y-109855890D01*
X137553600Y-109835354D01*
X137345098Y-109855890D01*
X137144609Y-109916707D01*
X136959837Y-110015470D01*
X136797882Y-110148382D01*
X136664970Y-110310337D01*
X136566207Y-110495110D01*
X136505390Y-110695599D01*
X136490000Y-110851854D01*
X136490000Y-112480347D01*
X136505391Y-112636602D01*
X136566208Y-112837091D01*
X136664971Y-113021863D01*
X136797883Y-113183818D01*
X136845600Y-113222978D01*
X136845600Y-114171333D01*
X136842176Y-114206100D01*
X136845600Y-114240866D01*
X136845600Y-114240873D01*
X136855845Y-114344891D01*
X136896329Y-114478350D01*
X136962072Y-114601346D01*
X137050547Y-114709152D01*
X137077557Y-114731319D01*
X137894408Y-115548170D01*
X137675867Y-115504700D01*
X137431333Y-115504700D01*
X137191497Y-115552406D01*
X136965576Y-115645985D01*
X136762253Y-115781841D01*
X136589341Y-115954753D01*
X136453485Y-116158076D01*
X136359906Y-116383997D01*
X136312200Y-116623833D01*
X132600201Y-116623833D01*
X132600201Y-96487786D01*
X138141000Y-96487786D01*
X138141000Y-96872414D01*
X138216037Y-97249652D01*
X138363228Y-97605003D01*
X138576916Y-97924810D01*
X138848890Y-98196784D01*
X139168697Y-98410472D01*
X139524048Y-98557663D01*
X139901286Y-98632700D01*
X140285914Y-98632700D01*
X140663152Y-98557663D01*
X141018503Y-98410472D01*
X141338310Y-98196784D01*
X141610284Y-97924810D01*
X141823972Y-97605003D01*
X141971163Y-97249652D01*
X142046200Y-96872414D01*
X142046200Y-96487786D01*
X141971163Y-96110548D01*
X141823972Y-95755197D01*
X141610284Y-95435390D01*
X141338310Y-95163416D01*
X141018503Y-94949728D01*
X140663152Y-94802537D01*
X140285914Y-94727500D01*
X139901286Y-94727500D01*
X139524048Y-94802537D01*
X139168697Y-94949728D01*
X138848890Y-95163416D01*
X138576916Y-95435390D01*
X138363228Y-95755197D01*
X138216037Y-96110548D01*
X138141000Y-96487786D01*
X132600201Y-96487786D01*
X132600201Y-91251351D01*
X137861600Y-91251351D01*
X137861600Y-91440849D01*
X137898569Y-91626705D01*
X137971086Y-91801778D01*
X138076366Y-91959339D01*
X138210361Y-92093334D01*
X138367922Y-92198614D01*
X138542995Y-92271131D01*
X138728851Y-92308100D01*
X138918349Y-92308100D01*
X139104205Y-92271131D01*
X139279278Y-92198614D01*
X139436839Y-92093334D01*
X139570834Y-91959339D01*
X139676114Y-91801778D01*
X139748631Y-91626705D01*
X139785600Y-91440849D01*
X139785600Y-91251351D01*
X148021600Y-91251351D01*
X148021600Y-91440849D01*
X148058569Y-91626705D01*
X148131086Y-91801778D01*
X148236366Y-91959339D01*
X148370361Y-92093334D01*
X148527922Y-92198614D01*
X148702995Y-92271131D01*
X148888851Y-92308100D01*
X149078349Y-92308100D01*
X149264205Y-92271131D01*
X149439278Y-92198614D01*
X149596839Y-92093334D01*
X149636073Y-92054100D01*
X151230338Y-92054100D01*
X153216329Y-94040092D01*
X153170528Y-94125779D01*
X153115520Y-94307116D01*
X153101600Y-94448448D01*
X153101601Y-95863753D01*
X153115521Y-96005085D01*
X153170529Y-96186422D01*
X153259858Y-96353544D01*
X153380073Y-96500028D01*
X153526557Y-96620243D01*
X153693679Y-96709572D01*
X153875016Y-96764580D01*
X154063600Y-96783154D01*
X154252185Y-96764580D01*
X154433522Y-96709572D01*
X154600644Y-96620243D01*
X154747128Y-96500028D01*
X154867343Y-96353544D01*
X154956672Y-96186422D01*
X155011680Y-96005085D01*
X155025600Y-95863753D01*
X155025600Y-94448447D01*
X155011680Y-94307115D01*
X154956672Y-94125778D01*
X154867343Y-93958656D01*
X154770555Y-93840718D01*
X154761355Y-93747308D01*
X154720871Y-93613849D01*
X154655128Y-93490853D01*
X154566653Y-93383047D01*
X154539644Y-93360881D01*
X152048823Y-90870061D01*
X152026653Y-90843047D01*
X151918847Y-90754572D01*
X151795851Y-90688829D01*
X151662392Y-90648345D01*
X151558374Y-90638100D01*
X151558366Y-90638100D01*
X151523600Y-90634676D01*
X151488834Y-90638100D01*
X149636073Y-90638100D01*
X149596839Y-90598866D01*
X149439278Y-90493586D01*
X149264205Y-90421069D01*
X149078349Y-90384100D01*
X148888851Y-90384100D01*
X148702995Y-90421069D01*
X148527922Y-90493586D01*
X148370361Y-90598866D01*
X148236366Y-90732861D01*
X148131086Y-90890422D01*
X148058569Y-91065495D01*
X148021600Y-91251351D01*
X139785600Y-91251351D01*
X139748631Y-91065495D01*
X139676114Y-90890422D01*
X139570834Y-90732861D01*
X139531600Y-90693627D01*
X139531600Y-89099362D01*
X140386863Y-88244100D01*
X151230338Y-88244100D01*
X155895601Y-92909364D01*
X155895601Y-93841991D01*
X155799857Y-93958656D01*
X155710528Y-94125779D01*
X155655520Y-94307116D01*
X155641600Y-94448448D01*
X155641601Y-95863753D01*
X155655521Y-96005085D01*
X155710529Y-96186422D01*
X155799858Y-96353544D01*
X155920073Y-96500028D01*
X156066557Y-96620243D01*
X156162357Y-96671449D01*
X156181845Y-96707909D01*
X156244927Y-96784774D01*
X156321792Y-96847856D01*
X156409488Y-96894731D01*
X156504643Y-96923595D01*
X156603600Y-96933342D01*
X156702558Y-96923595D01*
X156797713Y-96894731D01*
X156885409Y-96847856D01*
X156962274Y-96784774D01*
X157025356Y-96707909D01*
X157044844Y-96671449D01*
X157140644Y-96620243D01*
X157287128Y-96500028D01*
X157407343Y-96353544D01*
X157496672Y-96186422D01*
X157551680Y-96005085D01*
X157565600Y-95863753D01*
X157565600Y-94448447D01*
X157551680Y-94307115D01*
X157496672Y-94125778D01*
X157407343Y-93958656D01*
X157311600Y-93841992D01*
X157311600Y-92650866D01*
X157315024Y-92616100D01*
X157311600Y-92581333D01*
X157311600Y-92581326D01*
X157301355Y-92477308D01*
X157260871Y-92343849D01*
X157195128Y-92220853D01*
X157106653Y-92113047D01*
X157079644Y-92090881D01*
X156240114Y-91251351D01*
X158181600Y-91251351D01*
X158181600Y-91440849D01*
X158218569Y-91626705D01*
X158291086Y-91801778D01*
X158396366Y-91959339D01*
X158435601Y-91998574D01*
X158435600Y-93841991D01*
X158339857Y-93958656D01*
X158250528Y-94125779D01*
X158195520Y-94307116D01*
X158181600Y-94448448D01*
X158181601Y-95863753D01*
X158195521Y-96005085D01*
X158250529Y-96186422D01*
X158339858Y-96353544D01*
X158460073Y-96500028D01*
X158606557Y-96620243D01*
X158773679Y-96709572D01*
X158955016Y-96764580D01*
X159143600Y-96783154D01*
X159332185Y-96764580D01*
X159513522Y-96709572D01*
X159680644Y-96620243D01*
X159827128Y-96500028D01*
X159947343Y-96353544D01*
X160036672Y-96186422D01*
X160091680Y-96005085D01*
X160105600Y-95863753D01*
X160105600Y-94448447D01*
X160091680Y-94307115D01*
X160036672Y-94125778D01*
X159947343Y-93958656D01*
X159851600Y-93841992D01*
X159851600Y-91998573D01*
X159890834Y-91959339D01*
X159996114Y-91801778D01*
X160068631Y-91626705D01*
X160105600Y-91440849D01*
X160105600Y-91251351D01*
X160068631Y-91065495D01*
X159996114Y-90890422D01*
X159890834Y-90732861D01*
X159756839Y-90598866D01*
X159599278Y-90493586D01*
X159424205Y-90421069D01*
X159238349Y-90384100D01*
X159048851Y-90384100D01*
X158862995Y-90421069D01*
X158687922Y-90493586D01*
X158530361Y-90598866D01*
X158396366Y-90732861D01*
X158291086Y-90890422D01*
X158218569Y-91065495D01*
X158181600Y-91251351D01*
X156240114Y-91251351D01*
X152048823Y-87060061D01*
X152026653Y-87033047D01*
X151918847Y-86944572D01*
X151795851Y-86878829D01*
X151662392Y-86838345D01*
X151558374Y-86828100D01*
X151558366Y-86828100D01*
X151523600Y-86824676D01*
X151488834Y-86828100D01*
X140128366Y-86828100D01*
X140093599Y-86824676D01*
X140058833Y-86828100D01*
X140058826Y-86828100D01*
X139954808Y-86838345D01*
X139821349Y-86878829D01*
X139698353Y-86944572D01*
X139590547Y-87033047D01*
X139568381Y-87060056D01*
X138347557Y-88280881D01*
X138320547Y-88303048D01*
X138232072Y-88410854D01*
X138166329Y-88533850D01*
X138125845Y-88667309D01*
X138115600Y-88771327D01*
X138115600Y-88771334D01*
X138112176Y-88806100D01*
X138115600Y-88840867D01*
X138115601Y-90693626D01*
X138076366Y-90732861D01*
X137971086Y-90890422D01*
X137898569Y-91065495D01*
X137861600Y-91251351D01*
X132600201Y-91251351D01*
X132600201Y-77281351D01*
X135321600Y-77281351D01*
X135321600Y-77470849D01*
X135358569Y-77656705D01*
X135431086Y-77831778D01*
X135536366Y-77989339D01*
X135670361Y-78123334D01*
X135827922Y-78228614D01*
X136002995Y-78301131D01*
X136188851Y-78338100D01*
X136378349Y-78338100D01*
X136564205Y-78301131D01*
X136739278Y-78228614D01*
X136896839Y-78123334D01*
X137030834Y-77989339D01*
X137136114Y-77831778D01*
X137208631Y-77656705D01*
X137245600Y-77470849D01*
X137245600Y-77281351D01*
X137861600Y-77281351D01*
X137861600Y-77470849D01*
X137898569Y-77656705D01*
X137971086Y-77831778D01*
X138076366Y-77989339D01*
X138115601Y-78028574D01*
X138115600Y-83073627D01*
X138076366Y-83112861D01*
X137971086Y-83270422D01*
X137898569Y-83445495D01*
X137861600Y-83631351D01*
X137861600Y-83820849D01*
X137898569Y-84006705D01*
X137971086Y-84181778D01*
X138076366Y-84339339D01*
X138210361Y-84473334D01*
X138367922Y-84578614D01*
X138542995Y-84651131D01*
X138728851Y-84688100D01*
X138918349Y-84688100D01*
X139104205Y-84651131D01*
X139279278Y-84578614D01*
X139436839Y-84473334D01*
X139570834Y-84339339D01*
X139676114Y-84181778D01*
X139748631Y-84006705D01*
X139785600Y-83820849D01*
X139785600Y-83631351D01*
X139748631Y-83445495D01*
X139676114Y-83270422D01*
X139570834Y-83112861D01*
X139531600Y-83073627D01*
X139531600Y-78028573D01*
X139570834Y-77989339D01*
X139676114Y-77831778D01*
X139748631Y-77656705D01*
X139785600Y-77470849D01*
X139785600Y-77281351D01*
X145481600Y-77281351D01*
X145481600Y-77470849D01*
X145518569Y-77656705D01*
X145591086Y-77831778D01*
X145696366Y-77989339D01*
X145830361Y-78123334D01*
X145987922Y-78228614D01*
X146162995Y-78301131D01*
X146348851Y-78338100D01*
X146538349Y-78338100D01*
X146724205Y-78301131D01*
X146899278Y-78228614D01*
X147056839Y-78123334D01*
X147190834Y-77989339D01*
X147296114Y-77831778D01*
X147368631Y-77656705D01*
X147405600Y-77470849D01*
X147405600Y-77281351D01*
X148021600Y-77281351D01*
X148021600Y-77470849D01*
X148058569Y-77656705D01*
X148131086Y-77831778D01*
X148236366Y-77989339D01*
X148275601Y-78028574D01*
X148275600Y-83073627D01*
X148236366Y-83112861D01*
X148131086Y-83270422D01*
X148058569Y-83445495D01*
X148021600Y-83631351D01*
X148021600Y-83820849D01*
X148058569Y-84006705D01*
X148131086Y-84181778D01*
X148236366Y-84339339D01*
X148370361Y-84473334D01*
X148527922Y-84578614D01*
X148702995Y-84651131D01*
X148888851Y-84688100D01*
X149078349Y-84688100D01*
X149264205Y-84651131D01*
X149439278Y-84578614D01*
X149596839Y-84473334D01*
X149730834Y-84339339D01*
X149836114Y-84181778D01*
X149908631Y-84006705D01*
X149945600Y-83820849D01*
X149945600Y-83631351D01*
X149908631Y-83445495D01*
X149836114Y-83270422D01*
X149730834Y-83112861D01*
X149691600Y-83073627D01*
X149691600Y-78028573D01*
X149730834Y-77989339D01*
X149836114Y-77831778D01*
X149908631Y-77656705D01*
X149945600Y-77470849D01*
X149945600Y-77281351D01*
X155641600Y-77281351D01*
X155641600Y-77470849D01*
X155678569Y-77656705D01*
X155751086Y-77831778D01*
X155856366Y-77989339D01*
X155990361Y-78123334D01*
X156147922Y-78228614D01*
X156322995Y-78301131D01*
X156508851Y-78338100D01*
X156698349Y-78338100D01*
X156884205Y-78301131D01*
X157059278Y-78228614D01*
X157216839Y-78123334D01*
X157350834Y-77989339D01*
X157456114Y-77831778D01*
X157528631Y-77656705D01*
X157565600Y-77470849D01*
X157565600Y-77281351D01*
X158181600Y-77281351D01*
X158181600Y-77470849D01*
X158218569Y-77656705D01*
X158291086Y-77831778D01*
X158396366Y-77989339D01*
X158435601Y-78028574D01*
X158435600Y-83073627D01*
X158396366Y-83112861D01*
X158291086Y-83270422D01*
X158218569Y-83445495D01*
X158181600Y-83631351D01*
X158181600Y-83820849D01*
X158218569Y-84006705D01*
X158291086Y-84181778D01*
X158396366Y-84339339D01*
X158530361Y-84473334D01*
X158687922Y-84578614D01*
X158862995Y-84651131D01*
X159048851Y-84688100D01*
X159238349Y-84688100D01*
X159424205Y-84651131D01*
X159599278Y-84578614D01*
X159756839Y-84473334D01*
X159890834Y-84339339D01*
X159996114Y-84181778D01*
X160068631Y-84006705D01*
X160105600Y-83820849D01*
X160105600Y-83631351D01*
X160068631Y-83445495D01*
X159996114Y-83270422D01*
X159890834Y-83112861D01*
X159851600Y-83073627D01*
X159851600Y-78028573D01*
X159890834Y-77989339D01*
X159996114Y-77831778D01*
X160068631Y-77656705D01*
X160105600Y-77470849D01*
X160105600Y-77281351D01*
X160068631Y-77095495D01*
X159996114Y-76920422D01*
X159890834Y-76762861D01*
X159756839Y-76628866D01*
X159599278Y-76523586D01*
X159424205Y-76451069D01*
X159238349Y-76414100D01*
X159048851Y-76414100D01*
X158862995Y-76451069D01*
X158687922Y-76523586D01*
X158530361Y-76628866D01*
X158396366Y-76762861D01*
X158291086Y-76920422D01*
X158218569Y-77095495D01*
X158181600Y-77281351D01*
X157565600Y-77281351D01*
X157528631Y-77095495D01*
X157456114Y-76920422D01*
X157350834Y-76762861D01*
X157216839Y-76628866D01*
X157059278Y-76523586D01*
X156884205Y-76451069D01*
X156698349Y-76414100D01*
X156508851Y-76414100D01*
X156322995Y-76451069D01*
X156147922Y-76523586D01*
X155990361Y-76628866D01*
X155856366Y-76762861D01*
X155751086Y-76920422D01*
X155678569Y-77095495D01*
X155641600Y-77281351D01*
X149945600Y-77281351D01*
X149908631Y-77095495D01*
X149836114Y-76920422D01*
X149730834Y-76762861D01*
X149596839Y-76628866D01*
X149439278Y-76523586D01*
X149264205Y-76451069D01*
X149078349Y-76414100D01*
X148888851Y-76414100D01*
X148702995Y-76451069D01*
X148527922Y-76523586D01*
X148370361Y-76628866D01*
X148236366Y-76762861D01*
X148131086Y-76920422D01*
X148058569Y-77095495D01*
X148021600Y-77281351D01*
X147405600Y-77281351D01*
X147368631Y-77095495D01*
X147296114Y-76920422D01*
X147190834Y-76762861D01*
X147056839Y-76628866D01*
X146899278Y-76523586D01*
X146724205Y-76451069D01*
X146538349Y-76414100D01*
X146348851Y-76414100D01*
X146162995Y-76451069D01*
X145987922Y-76523586D01*
X145830361Y-76628866D01*
X145696366Y-76762861D01*
X145591086Y-76920422D01*
X145518569Y-77095495D01*
X145481600Y-77281351D01*
X139785600Y-77281351D01*
X139748631Y-77095495D01*
X139676114Y-76920422D01*
X139570834Y-76762861D01*
X139436839Y-76628866D01*
X139279278Y-76523586D01*
X139104205Y-76451069D01*
X138918349Y-76414100D01*
X138728851Y-76414100D01*
X138542995Y-76451069D01*
X138367922Y-76523586D01*
X138210361Y-76628866D01*
X138076366Y-76762861D01*
X137971086Y-76920422D01*
X137898569Y-77095495D01*
X137861600Y-77281351D01*
X137245600Y-77281351D01*
X137208631Y-77095495D01*
X137136114Y-76920422D01*
X137030834Y-76762861D01*
X136896839Y-76628866D01*
X136739278Y-76523586D01*
X136564205Y-76451069D01*
X136378349Y-76414100D01*
X136188851Y-76414100D01*
X136002995Y-76451069D01*
X135827922Y-76523586D01*
X135670361Y-76628866D01*
X135536366Y-76762861D01*
X135431086Y-76920422D01*
X135358569Y-77095495D01*
X135321600Y-77281351D01*
X132600201Y-77281351D01*
X132600201Y-73702701D01*
X164325200Y-73702701D01*
X164325200Y-129547700D01*
G37*
%TD.AperFunction*%
%TD*%
D21*
X134794366Y-131438817D02*
X134939574Y-131467700D01*
X135087626Y-131467700D01*
X135108162Y-131463615D01*
X135064794Y-131506983D01*
X134982540Y-131630084D01*
X134925883Y-131766866D01*
X134897000Y-131912074D01*
X134897000Y-132060126D01*
X134925883Y-132205334D01*
X134982540Y-132342116D01*
X135064794Y-132465217D01*
X135169483Y-132569906D01*
X135246100Y-132621100D01*
X135169483Y-132672294D01*
X135064794Y-132776983D01*
X134982540Y-132900084D01*
X134925883Y-133036866D01*
X134897000Y-133182074D01*
X134897000Y-133330126D01*
X134925883Y-133475334D01*
X134982540Y-133612116D01*
X135064794Y-133735217D01*
X135169483Y-133839906D01*
X135246100Y-133891100D01*
X135169483Y-133942294D01*
X135064794Y-134046983D01*
X134982540Y-134170084D01*
X134925883Y-134306866D01*
X134897000Y-134452074D01*
X134897000Y-134600126D01*
X134925883Y-134745334D01*
X134982540Y-134882116D01*
X135064794Y-135005217D01*
X135169483Y-135109906D01*
X135246100Y-135161100D01*
X135169483Y-135212294D01*
X135064794Y-135316983D01*
X134982540Y-135440084D01*
X134925883Y-135576866D01*
X134897000Y-135722074D01*
X134897000Y-135870126D01*
X134925883Y-136015334D01*
X134982540Y-136152116D01*
X135064794Y-136275217D01*
X135094076Y-136304499D01*
X132600201Y-136304499D01*
X132600201Y-131457242D01*
X132692834Y-131438817D01*
X132791100Y-131398114D01*
X132889366Y-131438817D01*
X133034574Y-131467700D01*
X133182626Y-131467700D01*
X133327834Y-131438817D01*
X133426100Y-131398114D01*
X133524366Y-131438817D01*
X133669574Y-131467700D01*
X133817626Y-131467700D01*
X133962834Y-131438817D01*
X134061100Y-131398114D01*
X134159366Y-131438817D01*
X134304574Y-131467700D01*
X134452626Y-131467700D01*
X134597834Y-131438817D01*
X134696100Y-131398114D01*
X134794366Y-131438817D01*
%TA.AperFunction,NonConductor*%
D22*
G36*
X134794366Y-131438817D02*
G01*
X134939574Y-131467700D01*
X135087626Y-131467700D01*
X135108162Y-131463615D01*
X135064794Y-131506983D01*
X134982540Y-131630084D01*
X134925883Y-131766866D01*
X134897000Y-131912074D01*
X134897000Y-132060126D01*
X134925883Y-132205334D01*
X134982540Y-132342116D01*
X135064794Y-132465217D01*
X135169483Y-132569906D01*
X135246100Y-132621100D01*
X135169483Y-132672294D01*
X135064794Y-132776983D01*
X134982540Y-132900084D01*
X134925883Y-133036866D01*
X134897000Y-133182074D01*
X134897000Y-133330126D01*
X134925883Y-133475334D01*
X134982540Y-133612116D01*
X135064794Y-133735217D01*
X135169483Y-133839906D01*
X135246100Y-133891100D01*
X135169483Y-133942294D01*
X135064794Y-134046983D01*
X134982540Y-134170084D01*
X134925883Y-134306866D01*
X134897000Y-134452074D01*
X134897000Y-134600126D01*
X134925883Y-134745334D01*
X134982540Y-134882116D01*
X135064794Y-135005217D01*
X135169483Y-135109906D01*
X135246100Y-135161100D01*
X135169483Y-135212294D01*
X135064794Y-135316983D01*
X134982540Y-135440084D01*
X134925883Y-135576866D01*
X134897000Y-135722074D01*
X134897000Y-135870126D01*
X134925883Y-136015334D01*
X134982540Y-136152116D01*
X135064794Y-136275217D01*
X135094076Y-136304499D01*
X132600201Y-136304499D01*
X132600201Y-131457242D01*
X132692834Y-131438817D01*
X132791100Y-131398114D01*
X132889366Y-131438817D01*
X133034574Y-131467700D01*
X133182626Y-131467700D01*
X133327834Y-131438817D01*
X133426100Y-131398114D01*
X133524366Y-131438817D01*
X133669574Y-131467700D01*
X133817626Y-131467700D01*
X133962834Y-131438817D01*
X134061100Y-131398114D01*
X134159366Y-131438817D01*
X134304574Y-131467700D01*
X134452626Y-131467700D01*
X134597834Y-131438817D01*
X134696100Y-131398114D01*
X134794366Y-131438817D01*
G37*
%TD.AperFunction*%
D21*
X164004366Y-131438817D02*
X164149574Y-131467700D01*
X164297626Y-131467700D01*
X164325200Y-131462215D01*
X164325200Y-136304499D01*
X160968124Y-136304499D01*
X160997406Y-136275217D01*
X161079660Y-136152116D01*
X161136317Y-136015334D01*
X161165200Y-135870126D01*
X161165200Y-135722074D01*
X161136317Y-135576866D01*
X161079660Y-135440084D01*
X160997406Y-135316983D01*
X160892717Y-135212294D01*
X160816100Y-135161100D01*
X160892717Y-135109906D01*
X160997406Y-135005217D01*
X161079660Y-134882116D01*
X161136317Y-134745334D01*
X161165200Y-134600126D01*
X161165200Y-134452074D01*
X161136317Y-134306866D01*
X161079660Y-134170084D01*
X160997406Y-134046983D01*
X160892717Y-133942294D01*
X160816100Y-133891100D01*
X160892717Y-133839906D01*
X160997406Y-133735217D01*
X161079660Y-133612116D01*
X161136317Y-133475334D01*
X161165200Y-133330126D01*
X161165200Y-133182074D01*
X161136317Y-133036866D01*
X161079660Y-132900084D01*
X160997406Y-132776983D01*
X160892717Y-132672294D01*
X160816100Y-132621100D01*
X160892717Y-132569906D01*
X160997406Y-132465217D01*
X161079660Y-132342116D01*
X161136317Y-132205334D01*
X161165200Y-132060126D01*
X161165200Y-131912074D01*
X161136317Y-131766866D01*
X161079660Y-131630084D01*
X160997406Y-131506983D01*
X160954038Y-131463615D01*
X160974574Y-131467700D01*
X161122626Y-131467700D01*
X161267834Y-131438817D01*
X161366100Y-131398114D01*
X161464366Y-131438817D01*
X161609574Y-131467700D01*
X161757626Y-131467700D01*
X161902834Y-131438817D01*
X162001100Y-131398114D01*
X162099366Y-131438817D01*
X162244574Y-131467700D01*
X162392626Y-131467700D01*
X162537834Y-131438817D01*
X162636100Y-131398114D01*
X162734366Y-131438817D01*
X162879574Y-131467700D01*
X163027626Y-131467700D01*
X163172834Y-131438817D01*
X163271100Y-131398114D01*
X163369366Y-131438817D01*
X163514574Y-131467700D01*
X163662626Y-131467700D01*
X163807834Y-131438817D01*
X163906100Y-131398114D01*
X164004366Y-131438817D01*
%TA.AperFunction,NonConductor*%
D22*
G36*
X164004366Y-131438817D02*
G01*
X164149574Y-131467700D01*
X164297626Y-131467700D01*
X164325200Y-131462215D01*
X164325200Y-136304499D01*
X160968124Y-136304499D01*
X160997406Y-136275217D01*
X161079660Y-136152116D01*
X161136317Y-136015334D01*
X161165200Y-135870126D01*
X161165200Y-135722074D01*
X161136317Y-135576866D01*
X161079660Y-135440084D01*
X160997406Y-135316983D01*
X160892717Y-135212294D01*
X160816100Y-135161100D01*
X160892717Y-135109906D01*
X160997406Y-135005217D01*
X161079660Y-134882116D01*
X161136317Y-134745334D01*
X161165200Y-134600126D01*
X161165200Y-134452074D01*
X161136317Y-134306866D01*
X161079660Y-134170084D01*
X160997406Y-134046983D01*
X160892717Y-133942294D01*
X160816100Y-133891100D01*
X160892717Y-133839906D01*
X160997406Y-133735217D01*
X161079660Y-133612116D01*
X161136317Y-133475334D01*
X161165200Y-133330126D01*
X161165200Y-133182074D01*
X161136317Y-133036866D01*
X161079660Y-132900084D01*
X160997406Y-132776983D01*
X160892717Y-132672294D01*
X160816100Y-132621100D01*
X160892717Y-132569906D01*
X160997406Y-132465217D01*
X161079660Y-132342116D01*
X161136317Y-132205334D01*
X161165200Y-132060126D01*
X161165200Y-131912074D01*
X161136317Y-131766866D01*
X161079660Y-131630084D01*
X160997406Y-131506983D01*
X160954038Y-131463615D01*
X160974574Y-131467700D01*
X161122626Y-131467700D01*
X161267834Y-131438817D01*
X161366100Y-131398114D01*
X161464366Y-131438817D01*
X161609574Y-131467700D01*
X161757626Y-131467700D01*
X161902834Y-131438817D01*
X162001100Y-131398114D01*
X162099366Y-131438817D01*
X162244574Y-131467700D01*
X162392626Y-131467700D01*
X162537834Y-131438817D01*
X162636100Y-131398114D01*
X162734366Y-131438817D01*
X162879574Y-131467700D01*
X163027626Y-131467700D01*
X163172834Y-131438817D01*
X163271100Y-131398114D01*
X163369366Y-131438817D01*
X163514574Y-131467700D01*
X163662626Y-131467700D01*
X163807834Y-131438817D01*
X163906100Y-131398114D01*
X164004366Y-131438817D01*
G37*
%TD.AperFunction*%
D21*
X159829794Y-131195217D02*
X159934483Y-131299906D01*
X160011100Y-131351100D01*
X159934483Y-131402294D01*
X159829794Y-131506983D01*
X159747540Y-131630084D01*
X159690883Y-131766866D01*
X159662000Y-131912074D01*
X159662000Y-132060126D01*
X159690883Y-132205334D01*
X159747540Y-132342116D01*
X159829794Y-132465217D01*
X159934483Y-132569906D01*
X160011100Y-132621100D01*
X159934483Y-132672294D01*
X159829794Y-132776983D01*
X159747540Y-132900084D01*
X159690883Y-133036866D01*
X159662000Y-133182074D01*
X159662000Y-133330126D01*
X159690883Y-133475334D01*
X159747540Y-133612116D01*
X159829794Y-133735217D01*
X159934483Y-133839906D01*
X160011100Y-133891100D01*
X159934483Y-133942294D01*
X159829794Y-134046983D01*
X159814510Y-134069856D01*
X159732515Y-133871904D01*
X159581371Y-133645700D01*
X159389000Y-133453329D01*
X159162796Y-133302185D01*
X158911452Y-133198074D01*
X158644627Y-133145000D01*
X158372573Y-133145000D01*
X158105748Y-133198074D01*
X157854404Y-133302185D01*
X157628200Y-133453329D01*
X157435829Y-133645700D01*
X157284685Y-133871904D01*
X157238600Y-133983162D01*
X157192515Y-133871904D01*
X157041371Y-133645700D01*
X156849000Y-133453329D01*
X156622796Y-133302185D01*
X156371452Y-133198074D01*
X156104627Y-133145000D01*
X155832573Y-133145000D01*
X155565748Y-133198074D01*
X155314404Y-133302185D01*
X155088200Y-133453329D01*
X154895829Y-133645700D01*
X154744685Y-133871904D01*
X154640574Y-134123248D01*
X154587500Y-134390073D01*
X154587500Y-134662127D01*
X154640574Y-134928952D01*
X154744685Y-135180296D01*
X154895829Y-135406500D01*
X155088200Y-135598871D01*
X155314404Y-135750015D01*
X155565748Y-135854126D01*
X155832573Y-135907200D01*
X156104627Y-135907200D01*
X156371452Y-135854126D01*
X156622796Y-135750015D01*
X156849000Y-135598871D01*
X157041371Y-135406500D01*
X157192515Y-135180296D01*
X157238600Y-135069038D01*
X157284685Y-135180296D01*
X157435829Y-135406500D01*
X157628200Y-135598871D01*
X157854404Y-135750015D01*
X158105748Y-135854126D01*
X158372573Y-135907200D01*
X158644627Y-135907200D01*
X158911452Y-135854126D01*
X159162796Y-135750015D01*
X159389000Y-135598871D01*
X159581371Y-135406500D01*
X159732515Y-135180296D01*
X159814510Y-134982344D01*
X159829794Y-135005217D01*
X159934483Y-135109906D01*
X160011100Y-135161100D01*
X159934483Y-135212294D01*
X159829794Y-135316983D01*
X159747540Y-135440084D01*
X159690883Y-135576866D01*
X159662000Y-135722074D01*
X159662000Y-135870126D01*
X159690883Y-136015334D01*
X159747540Y-136152116D01*
X159829794Y-136275217D01*
X159859076Y-136304499D01*
X136203124Y-136304499D01*
X136232406Y-136275217D01*
X136314660Y-136152116D01*
X136371317Y-136015334D01*
X136400200Y-135870126D01*
X136400200Y-135722074D01*
X136371317Y-135576866D01*
X136314660Y-135440084D01*
X136232406Y-135316983D01*
X136127717Y-135212294D01*
X136051100Y-135161100D01*
X136127717Y-135109906D01*
X136232406Y-135005217D01*
X136247690Y-134982344D01*
X136329685Y-135180296D01*
X136480829Y-135406500D01*
X136673200Y-135598871D01*
X136899404Y-135750015D01*
X137150748Y-135854126D01*
X137417573Y-135907200D01*
X137689627Y-135907200D01*
X137956452Y-135854126D01*
X138207796Y-135750015D01*
X138434000Y-135598871D01*
X138626371Y-135406500D01*
X138777515Y-135180296D01*
X138823600Y-135069038D01*
X138869685Y-135180296D01*
X139020829Y-135406500D01*
X139213200Y-135598871D01*
X139439404Y-135750015D01*
X139690748Y-135854126D01*
X139957573Y-135907200D01*
X140229627Y-135907200D01*
X140496452Y-135854126D01*
X140747796Y-135750015D01*
X140974000Y-135598871D01*
X141166371Y-135406500D01*
X141317515Y-135180296D01*
X141363600Y-135069038D01*
X141409685Y-135180296D01*
X141560829Y-135406500D01*
X141753200Y-135598871D01*
X141979404Y-135750015D01*
X142230748Y-135854126D01*
X142497573Y-135907200D01*
X142769627Y-135907200D01*
X143036452Y-135854126D01*
X143287796Y-135750015D01*
X143514000Y-135598871D01*
X143706371Y-135406500D01*
X143857515Y-135180296D01*
X143961626Y-134928952D01*
X144014700Y-134662127D01*
X144014700Y-134431351D01*
X144211600Y-134431351D01*
X144211600Y-134620849D01*
X144248569Y-134806705D01*
X144321086Y-134981778D01*
X144426366Y-135139339D01*
X144560361Y-135273334D01*
X144717922Y-135378614D01*
X144892995Y-135451131D01*
X145078851Y-135488100D01*
X145268349Y-135488100D01*
X145454205Y-135451131D01*
X145629278Y-135378614D01*
X145786839Y-135273334D01*
X145920834Y-135139339D01*
X146026114Y-134981778D01*
X146098631Y-134806705D01*
X146135600Y-134620849D01*
X146135600Y-134431351D01*
X151831600Y-134431351D01*
X151831600Y-134620849D01*
X151868569Y-134806705D01*
X151941086Y-134981778D01*
X152046366Y-135139339D01*
X152180361Y-135273334D01*
X152337922Y-135378614D01*
X152512995Y-135451131D01*
X152698851Y-135488100D01*
X152888349Y-135488100D01*
X153074205Y-135451131D01*
X153249278Y-135378614D01*
X153406839Y-135273334D01*
X153540834Y-135139339D01*
X153646114Y-134981778D01*
X153718631Y-134806705D01*
X153755600Y-134620849D01*
X153755600Y-134431351D01*
X153718631Y-134245495D01*
X153646114Y-134070422D01*
X153540834Y-133912861D01*
X153406839Y-133778866D01*
X153249278Y-133673586D01*
X153074205Y-133601069D01*
X152888349Y-133564100D01*
X152698851Y-133564100D01*
X152512995Y-133601069D01*
X152337922Y-133673586D01*
X152180361Y-133778866D01*
X152046366Y-133912861D01*
X151941086Y-134070422D01*
X151868569Y-134245495D01*
X151831600Y-134431351D01*
X146135600Y-134431351D01*
X146098631Y-134245495D01*
X146026114Y-134070422D01*
X145920834Y-133912861D01*
X145786839Y-133778866D01*
X145629278Y-133673586D01*
X145454205Y-133601069D01*
X145268349Y-133564100D01*
X145078851Y-133564100D01*
X144892995Y-133601069D01*
X144717922Y-133673586D01*
X144560361Y-133778866D01*
X144426366Y-133912861D01*
X144321086Y-134070422D01*
X144248569Y-134245495D01*
X144211600Y-134431351D01*
X144014700Y-134431351D01*
X144014700Y-134390073D01*
X143961626Y-134123248D01*
X143857515Y-133871904D01*
X143706371Y-133645700D01*
X143514000Y-133453329D01*
X143287796Y-133302185D01*
X143036452Y-133198074D01*
X142769627Y-133145000D01*
X142497573Y-133145000D01*
X142230748Y-133198074D01*
X141979404Y-133302185D01*
X141753200Y-133453329D01*
X141560829Y-133645700D01*
X141409685Y-133871904D01*
X141363600Y-133983162D01*
X141317515Y-133871904D01*
X141166371Y-133645700D01*
X140974000Y-133453329D01*
X140747796Y-133302185D01*
X140496452Y-133198074D01*
X140229627Y-133145000D01*
X139957573Y-133145000D01*
X139690748Y-133198074D01*
X139439404Y-133302185D01*
X139213200Y-133453329D01*
X139020829Y-133645700D01*
X138869685Y-133871904D01*
X138823600Y-133983162D01*
X138777515Y-133871904D01*
X138626371Y-133645700D01*
X138434000Y-133453329D01*
X138207796Y-133302185D01*
X137956452Y-133198074D01*
X137689627Y-133145000D01*
X137417573Y-133145000D01*
X137150748Y-133198074D01*
X136899404Y-133302185D01*
X136673200Y-133453329D01*
X136480829Y-133645700D01*
X136329685Y-133871904D01*
X136247690Y-134069856D01*
X136232406Y-134046983D01*
X136127717Y-133942294D01*
X136051100Y-133891100D01*
X136127717Y-133839906D01*
X136232406Y-133735217D01*
X136314660Y-133612116D01*
X136371317Y-133475334D01*
X136400200Y-133330126D01*
X136400200Y-133182074D01*
X136371317Y-133036866D01*
X136314660Y-132900084D01*
X136232406Y-132776983D01*
X136127717Y-132672294D01*
X136051100Y-132621100D01*
X136127717Y-132569906D01*
X136232406Y-132465217D01*
X136314660Y-132342116D01*
X136371317Y-132205334D01*
X136400200Y-132060126D01*
X136400200Y-131912074D01*
X136371317Y-131766866D01*
X136314660Y-131630084D01*
X136232406Y-131506983D01*
X136189038Y-131463615D01*
X136209574Y-131467700D01*
X136357626Y-131467700D01*
X136502834Y-131438817D01*
X136639616Y-131382160D01*
X136762717Y-131299906D01*
X136867406Y-131195217D01*
X136918600Y-131118600D01*
X136969794Y-131195217D01*
X137074483Y-131299906D01*
X137197584Y-131382160D01*
X137334366Y-131438817D01*
X137479574Y-131467700D01*
X137627626Y-131467700D01*
X137772834Y-131438817D01*
X137909616Y-131382160D01*
X138032717Y-131299906D01*
X138137406Y-131195217D01*
X138188600Y-131118600D01*
X138239794Y-131195217D01*
X138344483Y-131299906D01*
X138467584Y-131382160D01*
X138604366Y-131438817D01*
X138749574Y-131467700D01*
X138897626Y-131467700D01*
X139042834Y-131438817D01*
X139179616Y-131382160D01*
X139302717Y-131299906D01*
X139407406Y-131195217D01*
X139458600Y-131118600D01*
X139509794Y-131195217D01*
X139614483Y-131299906D01*
X139737584Y-131382160D01*
X139874366Y-131438817D01*
X140019574Y-131467700D01*
X140167626Y-131467700D01*
X140312834Y-131438817D01*
X140449616Y-131382160D01*
X140572717Y-131299906D01*
X140677406Y-131195217D01*
X140728600Y-131118600D01*
X140779794Y-131195217D01*
X140884483Y-131299906D01*
X141007584Y-131382160D01*
X141144366Y-131438817D01*
X141289574Y-131467700D01*
X141437626Y-131467700D01*
X141582834Y-131438817D01*
X141719616Y-131382160D01*
X141842717Y-131299906D01*
X141947406Y-131195217D01*
X141998600Y-131118600D01*
X142049794Y-131195217D01*
X142154483Y-131299906D01*
X142277584Y-131382160D01*
X142414366Y-131438817D01*
X142559574Y-131467700D01*
X142707626Y-131467700D01*
X142852834Y-131438817D01*
X142989616Y-131382160D01*
X143112717Y-131299906D01*
X143217406Y-131195217D01*
X143268600Y-131118600D01*
X143319794Y-131195217D01*
X143424483Y-131299906D01*
X143547584Y-131382160D01*
X143684366Y-131438817D01*
X143829574Y-131467700D01*
X143977626Y-131467700D01*
X144122834Y-131438817D01*
X144259616Y-131382160D01*
X144382717Y-131299906D01*
X144487406Y-131195217D01*
X144538600Y-131118600D01*
X144589794Y-131195217D01*
X144694483Y-131299906D01*
X144817584Y-131382160D01*
X144954366Y-131438817D01*
X145099574Y-131467700D01*
X145247626Y-131467700D01*
X145392834Y-131438817D01*
X145529616Y-131382160D01*
X145652717Y-131299906D01*
X145757406Y-131195217D01*
X145808600Y-131118600D01*
X145859794Y-131195217D01*
X145964483Y-131299906D01*
X146087584Y-131382160D01*
X146224366Y-131438817D01*
X146369574Y-131467700D01*
X146517626Y-131467700D01*
X146662834Y-131438817D01*
X146799616Y-131382160D01*
X146922717Y-131299906D01*
X147027406Y-131195217D01*
X147078600Y-131118600D01*
X147129794Y-131195217D01*
X147234483Y-131299906D01*
X147357584Y-131382160D01*
X147494366Y-131438817D01*
X147639574Y-131467700D01*
X147787626Y-131467700D01*
X147932834Y-131438817D01*
X148069616Y-131382160D01*
X148192717Y-131299906D01*
X148297406Y-131195217D01*
X148348600Y-131118600D01*
X148399794Y-131195217D01*
X148504483Y-131299906D01*
X148627584Y-131382160D01*
X148764366Y-131438817D01*
X148909574Y-131467700D01*
X149057626Y-131467700D01*
X149202834Y-131438817D01*
X149339616Y-131382160D01*
X149462717Y-131299906D01*
X149567406Y-131195217D01*
X149618600Y-131118600D01*
X149669794Y-131195217D01*
X149774483Y-131299906D01*
X149897584Y-131382160D01*
X150034366Y-131438817D01*
X150179574Y-131467700D01*
X150327626Y-131467700D01*
X150472834Y-131438817D01*
X150609616Y-131382160D01*
X150732717Y-131299906D01*
X150837406Y-131195217D01*
X150888600Y-131118600D01*
X150939794Y-131195217D01*
X151044483Y-131299906D01*
X151167584Y-131382160D01*
X151304366Y-131438817D01*
X151449574Y-131467700D01*
X151597626Y-131467700D01*
X151742834Y-131438817D01*
X151879616Y-131382160D01*
X152002717Y-131299906D01*
X152107406Y-131195217D01*
X152158600Y-131118600D01*
X152209794Y-131195217D01*
X152314483Y-131299906D01*
X152437584Y-131382160D01*
X152574366Y-131438817D01*
X152719574Y-131467700D01*
X152867626Y-131467700D01*
X153012834Y-131438817D01*
X153149616Y-131382160D01*
X153272717Y-131299906D01*
X153377406Y-131195217D01*
X153428600Y-131118600D01*
X153479794Y-131195217D01*
X153584483Y-131299906D01*
X153707584Y-131382160D01*
X153844366Y-131438817D01*
X153989574Y-131467700D01*
X154137626Y-131467700D01*
X154282834Y-131438817D01*
X154419616Y-131382160D01*
X154542717Y-131299906D01*
X154647406Y-131195217D01*
X154698600Y-131118600D01*
X154749794Y-131195217D01*
X154854483Y-131299906D01*
X154977584Y-131382160D01*
X155114366Y-131438817D01*
X155259574Y-131467700D01*
X155407626Y-131467700D01*
X155552834Y-131438817D01*
X155689616Y-131382160D01*
X155812717Y-131299906D01*
X155917406Y-131195217D01*
X155968600Y-131118600D01*
X156019794Y-131195217D01*
X156124483Y-131299906D01*
X156247584Y-131382160D01*
X156384366Y-131438817D01*
X156529574Y-131467700D01*
X156677626Y-131467700D01*
X156822834Y-131438817D01*
X156959616Y-131382160D01*
X157082717Y-131299906D01*
X157187406Y-131195217D01*
X157238600Y-131118600D01*
X157289794Y-131195217D01*
X157394483Y-131299906D01*
X157517584Y-131382160D01*
X157654366Y-131438817D01*
X157799574Y-131467700D01*
X157947626Y-131467700D01*
X158092834Y-131438817D01*
X158229616Y-131382160D01*
X158352717Y-131299906D01*
X158457406Y-131195217D01*
X158508600Y-131118600D01*
X158559794Y-131195217D01*
X158664483Y-131299906D01*
X158787584Y-131382160D01*
X158924366Y-131438817D01*
X159069574Y-131467700D01*
X159217626Y-131467700D01*
X159362834Y-131438817D01*
X159499616Y-131382160D01*
X159622717Y-131299906D01*
X159727406Y-131195217D01*
X159778600Y-131118600D01*
X159829794Y-131195217D01*
%TA.AperFunction,NonConductor*%
D22*
G36*
X159829794Y-131195217D02*
G01*
X159934483Y-131299906D01*
X160011100Y-131351100D01*
X159934483Y-131402294D01*
X159829794Y-131506983D01*
X159747540Y-131630084D01*
X159690883Y-131766866D01*
X159662000Y-131912074D01*
X159662000Y-132060126D01*
X159690883Y-132205334D01*
X159747540Y-132342116D01*
X159829794Y-132465217D01*
X159934483Y-132569906D01*
X160011100Y-132621100D01*
X159934483Y-132672294D01*
X159829794Y-132776983D01*
X159747540Y-132900084D01*
X159690883Y-133036866D01*
X159662000Y-133182074D01*
X159662000Y-133330126D01*
X159690883Y-133475334D01*
X159747540Y-133612116D01*
X159829794Y-133735217D01*
X159934483Y-133839906D01*
X160011100Y-133891100D01*
X159934483Y-133942294D01*
X159829794Y-134046983D01*
X159814510Y-134069856D01*
X159732515Y-133871904D01*
X159581371Y-133645700D01*
X159389000Y-133453329D01*
X159162796Y-133302185D01*
X158911452Y-133198074D01*
X158644627Y-133145000D01*
X158372573Y-133145000D01*
X158105748Y-133198074D01*
X157854404Y-133302185D01*
X157628200Y-133453329D01*
X157435829Y-133645700D01*
X157284685Y-133871904D01*
X157238600Y-133983162D01*
X157192515Y-133871904D01*
X157041371Y-133645700D01*
X156849000Y-133453329D01*
X156622796Y-133302185D01*
X156371452Y-133198074D01*
X156104627Y-133145000D01*
X155832573Y-133145000D01*
X155565748Y-133198074D01*
X155314404Y-133302185D01*
X155088200Y-133453329D01*
X154895829Y-133645700D01*
X154744685Y-133871904D01*
X154640574Y-134123248D01*
X154587500Y-134390073D01*
X154587500Y-134662127D01*
X154640574Y-134928952D01*
X154744685Y-135180296D01*
X154895829Y-135406500D01*
X155088200Y-135598871D01*
X155314404Y-135750015D01*
X155565748Y-135854126D01*
X155832573Y-135907200D01*
X156104627Y-135907200D01*
X156371452Y-135854126D01*
X156622796Y-135750015D01*
X156849000Y-135598871D01*
X157041371Y-135406500D01*
X157192515Y-135180296D01*
X157238600Y-135069038D01*
X157284685Y-135180296D01*
X157435829Y-135406500D01*
X157628200Y-135598871D01*
X157854404Y-135750015D01*
X158105748Y-135854126D01*
X158372573Y-135907200D01*
X158644627Y-135907200D01*
X158911452Y-135854126D01*
X159162796Y-135750015D01*
X159389000Y-135598871D01*
X159581371Y-135406500D01*
X159732515Y-135180296D01*
X159814510Y-134982344D01*
X159829794Y-135005217D01*
X159934483Y-135109906D01*
X160011100Y-135161100D01*
X159934483Y-135212294D01*
X159829794Y-135316983D01*
X159747540Y-135440084D01*
X159690883Y-135576866D01*
X159662000Y-135722074D01*
X159662000Y-135870126D01*
X159690883Y-136015334D01*
X159747540Y-136152116D01*
X159829794Y-136275217D01*
X159859076Y-136304499D01*
X136203124Y-136304499D01*
X136232406Y-136275217D01*
X136314660Y-136152116D01*
X136371317Y-136015334D01*
X136400200Y-135870126D01*
X136400200Y-135722074D01*
X136371317Y-135576866D01*
X136314660Y-135440084D01*
X136232406Y-135316983D01*
X136127717Y-135212294D01*
X136051100Y-135161100D01*
X136127717Y-135109906D01*
X136232406Y-135005217D01*
X136247690Y-134982344D01*
X136329685Y-135180296D01*
X136480829Y-135406500D01*
X136673200Y-135598871D01*
X136899404Y-135750015D01*
X137150748Y-135854126D01*
X137417573Y-135907200D01*
X137689627Y-135907200D01*
X137956452Y-135854126D01*
X138207796Y-135750015D01*
X138434000Y-135598871D01*
X138626371Y-135406500D01*
X138777515Y-135180296D01*
X138823600Y-135069038D01*
X138869685Y-135180296D01*
X139020829Y-135406500D01*
X139213200Y-135598871D01*
X139439404Y-135750015D01*
X139690748Y-135854126D01*
X139957573Y-135907200D01*
X140229627Y-135907200D01*
X140496452Y-135854126D01*
X140747796Y-135750015D01*
X140974000Y-135598871D01*
X141166371Y-135406500D01*
X141317515Y-135180296D01*
X141363600Y-135069038D01*
X141409685Y-135180296D01*
X141560829Y-135406500D01*
X141753200Y-135598871D01*
X141979404Y-135750015D01*
X142230748Y-135854126D01*
X142497573Y-135907200D01*
X142769627Y-135907200D01*
X143036452Y-135854126D01*
X143287796Y-135750015D01*
X143514000Y-135598871D01*
X143706371Y-135406500D01*
X143857515Y-135180296D01*
X143961626Y-134928952D01*
X144014700Y-134662127D01*
X144014700Y-134431351D01*
X144211600Y-134431351D01*
X144211600Y-134620849D01*
X144248569Y-134806705D01*
X144321086Y-134981778D01*
X144426366Y-135139339D01*
X144560361Y-135273334D01*
X144717922Y-135378614D01*
X144892995Y-135451131D01*
X145078851Y-135488100D01*
X145268349Y-135488100D01*
X145454205Y-135451131D01*
X145629278Y-135378614D01*
X145786839Y-135273334D01*
X145920834Y-135139339D01*
X146026114Y-134981778D01*
X146098631Y-134806705D01*
X146135600Y-134620849D01*
X146135600Y-134431351D01*
X151831600Y-134431351D01*
X151831600Y-134620849D01*
X151868569Y-134806705D01*
X151941086Y-134981778D01*
X152046366Y-135139339D01*
X152180361Y-135273334D01*
X152337922Y-135378614D01*
X152512995Y-135451131D01*
X152698851Y-135488100D01*
X152888349Y-135488100D01*
X153074205Y-135451131D01*
X153249278Y-135378614D01*
X153406839Y-135273334D01*
X153540834Y-135139339D01*
X153646114Y-134981778D01*
X153718631Y-134806705D01*
X153755600Y-134620849D01*
X153755600Y-134431351D01*
X153718631Y-134245495D01*
X153646114Y-134070422D01*
X153540834Y-133912861D01*
X153406839Y-133778866D01*
X153249278Y-133673586D01*
X153074205Y-133601069D01*
X152888349Y-133564100D01*
X152698851Y-133564100D01*
X152512995Y-133601069D01*
X152337922Y-133673586D01*
X152180361Y-133778866D01*
X152046366Y-133912861D01*
X151941086Y-134070422D01*
X151868569Y-134245495D01*
X151831600Y-134431351D01*
X146135600Y-134431351D01*
X146098631Y-134245495D01*
X146026114Y-134070422D01*
X145920834Y-133912861D01*
X145786839Y-133778866D01*
X145629278Y-133673586D01*
X145454205Y-133601069D01*
X145268349Y-133564100D01*
X145078851Y-133564100D01*
X144892995Y-133601069D01*
X144717922Y-133673586D01*
X144560361Y-133778866D01*
X144426366Y-133912861D01*
X144321086Y-134070422D01*
X144248569Y-134245495D01*
X144211600Y-134431351D01*
X144014700Y-134431351D01*
X144014700Y-134390073D01*
X143961626Y-134123248D01*
X143857515Y-133871904D01*
X143706371Y-133645700D01*
X143514000Y-133453329D01*
X143287796Y-133302185D01*
X143036452Y-133198074D01*
X142769627Y-133145000D01*
X142497573Y-133145000D01*
X142230748Y-133198074D01*
X141979404Y-133302185D01*
X141753200Y-133453329D01*
X141560829Y-133645700D01*
X141409685Y-133871904D01*
X141363600Y-133983162D01*
X141317515Y-133871904D01*
X141166371Y-133645700D01*
X140974000Y-133453329D01*
X140747796Y-133302185D01*
X140496452Y-133198074D01*
X140229627Y-133145000D01*
X139957573Y-133145000D01*
X139690748Y-133198074D01*
X139439404Y-133302185D01*
X139213200Y-133453329D01*
X139020829Y-133645700D01*
X138869685Y-133871904D01*
X138823600Y-133983162D01*
X138777515Y-133871904D01*
X138626371Y-133645700D01*
X138434000Y-133453329D01*
X138207796Y-133302185D01*
X137956452Y-133198074D01*
X137689627Y-133145000D01*
X137417573Y-133145000D01*
X137150748Y-133198074D01*
X136899404Y-133302185D01*
X136673200Y-133453329D01*
X136480829Y-133645700D01*
X136329685Y-133871904D01*
X136247690Y-134069856D01*
X136232406Y-134046983D01*
X136127717Y-133942294D01*
X136051100Y-133891100D01*
X136127717Y-133839906D01*
X136232406Y-133735217D01*
X136314660Y-133612116D01*
X136371317Y-133475334D01*
X136400200Y-133330126D01*
X136400200Y-133182074D01*
X136371317Y-133036866D01*
X136314660Y-132900084D01*
X136232406Y-132776983D01*
X136127717Y-132672294D01*
X136051100Y-132621100D01*
X136127717Y-132569906D01*
X136232406Y-132465217D01*
X136314660Y-132342116D01*
X136371317Y-132205334D01*
X136400200Y-132060126D01*
X136400200Y-131912074D01*
X136371317Y-131766866D01*
X136314660Y-131630084D01*
X136232406Y-131506983D01*
X136189038Y-131463615D01*
X136209574Y-131467700D01*
X136357626Y-131467700D01*
X136502834Y-131438817D01*
X136639616Y-131382160D01*
X136762717Y-131299906D01*
X136867406Y-131195217D01*
X136918600Y-131118600D01*
X136969794Y-131195217D01*
X137074483Y-131299906D01*
X137197584Y-131382160D01*
X137334366Y-131438817D01*
X137479574Y-131467700D01*
X137627626Y-131467700D01*
X137772834Y-131438817D01*
X137909616Y-131382160D01*
X138032717Y-131299906D01*
X138137406Y-131195217D01*
X138188600Y-131118600D01*
X138239794Y-131195217D01*
X138344483Y-131299906D01*
X138467584Y-131382160D01*
X138604366Y-131438817D01*
X138749574Y-131467700D01*
X138897626Y-131467700D01*
X139042834Y-131438817D01*
X139179616Y-131382160D01*
X139302717Y-131299906D01*
X139407406Y-131195217D01*
X139458600Y-131118600D01*
X139509794Y-131195217D01*
X139614483Y-131299906D01*
X139737584Y-131382160D01*
X139874366Y-131438817D01*
X140019574Y-131467700D01*
X140167626Y-131467700D01*
X140312834Y-131438817D01*
X140449616Y-131382160D01*
X140572717Y-131299906D01*
X140677406Y-131195217D01*
X140728600Y-131118600D01*
X140779794Y-131195217D01*
X140884483Y-131299906D01*
X141007584Y-131382160D01*
X141144366Y-131438817D01*
X141289574Y-131467700D01*
X141437626Y-131467700D01*
X141582834Y-131438817D01*
X141719616Y-131382160D01*
X141842717Y-131299906D01*
X141947406Y-131195217D01*
X141998600Y-131118600D01*
X142049794Y-131195217D01*
X142154483Y-131299906D01*
X142277584Y-131382160D01*
X142414366Y-131438817D01*
X142559574Y-131467700D01*
X142707626Y-131467700D01*
X142852834Y-131438817D01*
X142989616Y-131382160D01*
X143112717Y-131299906D01*
X143217406Y-131195217D01*
X143268600Y-131118600D01*
X143319794Y-131195217D01*
X143424483Y-131299906D01*
X143547584Y-131382160D01*
X143684366Y-131438817D01*
X143829574Y-131467700D01*
X143977626Y-131467700D01*
X144122834Y-131438817D01*
X144259616Y-131382160D01*
X144382717Y-131299906D01*
X144487406Y-131195217D01*
X144538600Y-131118600D01*
X144589794Y-131195217D01*
X144694483Y-131299906D01*
X144817584Y-131382160D01*
X144954366Y-131438817D01*
X145099574Y-131467700D01*
X145247626Y-131467700D01*
X145392834Y-131438817D01*
X145529616Y-131382160D01*
X145652717Y-131299906D01*
X145757406Y-131195217D01*
X145808600Y-131118600D01*
X145859794Y-131195217D01*
X145964483Y-131299906D01*
X146087584Y-131382160D01*
X146224366Y-131438817D01*
X146369574Y-131467700D01*
X146517626Y-131467700D01*
X146662834Y-131438817D01*
X146799616Y-131382160D01*
X146922717Y-131299906D01*
X147027406Y-131195217D01*
X147078600Y-131118600D01*
X147129794Y-131195217D01*
X147234483Y-131299906D01*
X147357584Y-131382160D01*
X147494366Y-131438817D01*
X147639574Y-131467700D01*
X147787626Y-131467700D01*
X147932834Y-131438817D01*
X148069616Y-131382160D01*
X148192717Y-131299906D01*
X148297406Y-131195217D01*
X148348600Y-131118600D01*
X148399794Y-131195217D01*
X148504483Y-131299906D01*
X148627584Y-131382160D01*
X148764366Y-131438817D01*
X148909574Y-131467700D01*
X149057626Y-131467700D01*
X149202834Y-131438817D01*
X149339616Y-131382160D01*
X149462717Y-131299906D01*
X149567406Y-131195217D01*
X149618600Y-131118600D01*
X149669794Y-131195217D01*
X149774483Y-131299906D01*
X149897584Y-131382160D01*
X150034366Y-131438817D01*
X150179574Y-131467700D01*
X150327626Y-131467700D01*
X150472834Y-131438817D01*
X150609616Y-131382160D01*
X150732717Y-131299906D01*
X150837406Y-131195217D01*
X150888600Y-131118600D01*
X150939794Y-131195217D01*
X151044483Y-131299906D01*
X151167584Y-131382160D01*
X151304366Y-131438817D01*
X151449574Y-131467700D01*
X151597626Y-131467700D01*
X151742834Y-131438817D01*
X151879616Y-131382160D01*
X152002717Y-131299906D01*
X152107406Y-131195217D01*
X152158600Y-131118600D01*
X152209794Y-131195217D01*
X152314483Y-131299906D01*
X152437584Y-131382160D01*
X152574366Y-131438817D01*
X152719574Y-131467700D01*
X152867626Y-131467700D01*
X153012834Y-131438817D01*
X153149616Y-131382160D01*
X153272717Y-131299906D01*
X153377406Y-131195217D01*
X153428600Y-131118600D01*
X153479794Y-131195217D01*
X153584483Y-131299906D01*
X153707584Y-131382160D01*
X153844366Y-131438817D01*
X153989574Y-131467700D01*
X154137626Y-131467700D01*
X154282834Y-131438817D01*
X154419616Y-131382160D01*
X154542717Y-131299906D01*
X154647406Y-131195217D01*
X154698600Y-131118600D01*
X154749794Y-131195217D01*
X154854483Y-131299906D01*
X154977584Y-131382160D01*
X155114366Y-131438817D01*
X155259574Y-131467700D01*
X155407626Y-131467700D01*
X155552834Y-131438817D01*
X155689616Y-131382160D01*
X155812717Y-131299906D01*
X155917406Y-131195217D01*
X155968600Y-131118600D01*
X156019794Y-131195217D01*
X156124483Y-131299906D01*
X156247584Y-131382160D01*
X156384366Y-131438817D01*
X156529574Y-131467700D01*
X156677626Y-131467700D01*
X156822834Y-131438817D01*
X156959616Y-131382160D01*
X157082717Y-131299906D01*
X157187406Y-131195217D01*
X157238600Y-131118600D01*
X157289794Y-131195217D01*
X157394483Y-131299906D01*
X157517584Y-131382160D01*
X157654366Y-131438817D01*
X157799574Y-131467700D01*
X157947626Y-131467700D01*
X158092834Y-131438817D01*
X158229616Y-131382160D01*
X158352717Y-131299906D01*
X158457406Y-131195217D01*
X158508600Y-131118600D01*
X158559794Y-131195217D01*
X158664483Y-131299906D01*
X158787584Y-131382160D01*
X158924366Y-131438817D01*
X159069574Y-131467700D01*
X159217626Y-131467700D01*
X159362834Y-131438817D01*
X159499616Y-131382160D01*
X159622717Y-131299906D01*
X159727406Y-131195217D01*
X159778600Y-131118600D01*
X159829794Y-131195217D01*
G37*
%TD.AperFunction*%
M02*
