%TF.GenerationSoftware,KiCad,Pcbnew,(5.1.12-1-10_14)*%
%TF.CreationDate,2021-11-23T12:12:06-05:00*%
%TF.ProjectId,EMB2,454d4232-2e6b-4696-9361-645f70636258,rev?*%
%TF.SameCoordinates,Original*%
%TF.FileFunction,Copper,L1,Top*%
%TF.FilePolarity,Positive*%
%FSLAX46Y46*%
G04 Gerber Fmt 4.6, Leading zero omitted, Abs format (unit mm)*
G04 Created by KiCad (PCBNEW (5.1.12-1-10_14)) date 2021-11-23 12:12:06*
%MOMM*%
%LPD*%
G01*
G04 APERTURE LIST*
%TA.AperFunction,ComponentPad*%
%ADD10R,3.216000X3.216000*%
%TD*%
%TA.AperFunction,ComponentPad*%
%ADD11R,1.800000X1.800000*%
%TD*%
%TA.AperFunction,ComponentPad*%
%ADD12O,1.320800X2.641600*%
%TD*%
%TA.AperFunction,ComponentPad*%
%ADD13O,1.524000X3.048000*%
%TD*%
%TA.AperFunction,ComponentPad*%
%ADD14C,1.320800*%
%TD*%
%TA.AperFunction,ComponentPad*%
%ADD15C,1.879600*%
%TD*%
%TA.AperFunction,ComponentPad*%
%ADD16C,2.159000*%
%TD*%
G04 APERTURE END LIST*
D10*
%TO.P,10K_LIN_POT,S2*%
%TO.N,N/C*%
X149063600Y-114206100D03*
%TO.P,10K_LIN_POT,S1*%
X159063600Y-114206100D03*
D11*
%TO.P,10K_LIN_POT,3*%
X151563600Y-107206100D03*
%TO.P,10K_LIN_POT,2*%
X154063600Y-107206100D03*
%TO.P,10K_LIN_POT,1*%
X156563600Y-107206100D03*
%TD*%
D12*
%TO.P,IC1,8*%
%TO.N,Net-(IC1-Pad8)*%
X151523600Y-95156100D03*
%TO.P,IC1,7*%
%TO.N,Net-(IC1-Pad7)*%
X154063600Y-95156100D03*
%TO.P,IC1,6*%
%TO.N,Net-(IC1-Pad6)*%
X156603600Y-95156100D03*
%TO.P,IC1,5*%
%TO.N,Net-(IC1-Pad5)*%
X159143600Y-95156100D03*
%TO.P,IC1,4*%
%TO.N,Net-(G1-Pad-)*%
X159143600Y-102776100D03*
%TO.P,IC1,3*%
%TO.N,N/C*%
X156603600Y-102776100D03*
%TO.P,IC1,2*%
X154063600Y-102776100D03*
%TO.P,IC1,1*%
X151523600Y-102776100D03*
%TD*%
D13*
%TO.P,7805,OUT*%
%TO.N,N/C*%
X142633600Y-111666100D03*
%TO.P,7805,GND*%
%TO.N,GND*%
X140093600Y-111666100D03*
%TO.P,7805,IN*%
%TO.N,N/C*%
X137553600Y-111666100D03*
%TD*%
D14*
%TO.P,L1,K*%
%TO.N,GND*%
X156603600Y-77376100D03*
%TO.P,L1,A*%
%TO.N,N/C*%
X159143600Y-77376100D03*
%TD*%
%TO.P,L2,K*%
%TO.N,GND*%
X136283600Y-77376100D03*
%TO.P,L2,A*%
%TO.N,N/C*%
X138823600Y-77376100D03*
%TD*%
%TO.P,L3,K*%
%TO.N,GND*%
X146443600Y-77376100D03*
%TO.P,L3,A*%
%TO.N,N/C*%
X148983600Y-77376100D03*
%TD*%
%TO.P,R1,2*%
%TO.N,Net-(LED1-PadA)*%
X159143600Y-83726100D03*
%TO.P,R1,1*%
%TO.N,Net-(IC1-Pad5)*%
X159143600Y-91346100D03*
%TD*%
%TO.P,R2,2*%
%TO.N,Net-(LED2-PadA)*%
X138823600Y-83726100D03*
%TO.P,R2,1*%
%TO.N,Net-(IC1-Pad6)*%
X138823600Y-91346100D03*
%TD*%
%TO.P,R3,2*%
%TO.N,Net-(LED3-PadA)*%
X148983600Y-83726100D03*
%TO.P,R3,1*%
%TO.N,Net-(IC1-Pad7)*%
X148983600Y-91346100D03*
%TD*%
D15*
%TO.P,S1,3*%
%TO.N,N/C*%
X137553600Y-116746100D03*
%TO.P,S1,2*%
%TO.N,Net-(L7805CV1-PadIN)*%
X140093600Y-116746100D03*
%TO.P,S1,1*%
%TO.N,N/C*%
X142633600Y-116746100D03*
%TD*%
D13*
%TO.P,E$2,6*%
%TO.N,N/C*%
X155333600Y-125636100D03*
%TO.P,E$2,5*%
X152793600Y-125636100D03*
%TO.P,E$2,4*%
X150253600Y-125636100D03*
%TO.P,E$2,3*%
X147713600Y-125636100D03*
%TO.P,E$2,2*%
X145173600Y-125636100D03*
%TO.P,E$2,1*%
%TO.N,GND*%
X142633600Y-125636100D03*
%TD*%
D14*
%TO.P,PRACTICE,2*%
%TO.N,N/C*%
X152793600Y-134526100D03*
%TO.P,PRACTICE,1*%
X145173600Y-134526100D03*
%TD*%
D16*
%TO.P,E$5,MP*%
%TO.N,N/C*%
X137553600Y-134526100D03*
%TD*%
%TO.P,E$6,MP*%
%TO.N,N/C*%
X140093600Y-134526100D03*
%TD*%
%TO.P,E$7,MP*%
%TO.N,N/C*%
X142633600Y-134526100D03*
%TD*%
%TO.P,E$8,MP*%
%TO.N,N/C*%
X158508600Y-134526100D03*
%TD*%
%TO.P,E$9,MP*%
%TO.N,N/C*%
X155968600Y-134526100D03*
%TD*%
M02*
