M48
; DRILL file {KiCad (5.1.12-1-10_14)} date Tuesday, November 23, 2021 at 10:57:15 AM
; FORMAT={-:-/ absolute / inch / decimal}
; #@! TF.CreationDate,2021-11-23T10:57:15-05:00
; #@! TF.GenerationSoftware,Kicad,Pcbnew,(5.1.12-1-10_14)
; #@! TF.FileFunction,Plated,1,2,PTH
FMAT,2
INCH
T1C0.0320
T2C0.0400
T3C0.0440
T4C0.0472
T5C0.0866
%
G90
G05
T1
X5.3655Y-3.0463
X5.4655Y-3.0463
X5.4655Y-3.2963
X5.4655Y-3.5963
X5.7155Y-5.2963
X5.7655Y-3.0463
X5.8655Y-3.0463
X5.8655Y-3.2963
X5.8655Y-3.5963
X5.9655Y-3.7463
X5.9655Y-4.0463
X6.0155Y-5.2963
X6.0655Y-3.7463
X6.0655Y-4.0463
X6.1655Y-3.0463
X6.1655Y-3.7463
X6.1655Y-4.0463
X6.2655Y-3.0463
X6.2655Y-3.2963
X6.2655Y-3.5963
X6.2655Y-3.7463
X6.2655Y-4.0463
T2
X5.4155Y-4.3963
X5.4155Y-4.5963
X5.5155Y-4.3963
X5.5155Y-4.5963
X5.6155Y-4.3963
X5.6155Y-4.5963
X5.6155Y-4.9463
X5.7155Y-4.9463
X5.8155Y-4.9463
X5.9155Y-4.9463
X6.0155Y-4.9463
X6.1155Y-4.9463
T3
X5.4155Y-5.2963
X5.5155Y-5.2963
X5.6155Y-5.2963
X6.1405Y-5.2963
X6.2405Y-5.2963
T4
X5.9671Y-4.2207
X6.0655Y-4.2207
X6.1639Y-4.2207
T5
X5.8686Y-4.4963
X6.2623Y-4.4963
T0
M30
